<svg xmlns="http://www.w3.org/2000/svg" xmlns:xlink="http://www.w3.org/1999/xlink" xmlns:lucid="lucid" width="1312" height="1552"><g transform="translate(0 0)" lucid:page-tab-id="0_0"><path d="M60 60h440v80H60z" stroke="#000" stroke-width="2" fill="#fff"/><use xlink:href="#a" transform="matrix(1,0,0,1,65,65) translate(121.67500000000001 38.6)"/><use xlink:href="#b" transform="matrix(1,0,0,1,65,65) translate(169.625 38.6)"/><use xlink:href="#c" transform="matrix(1,0,0,1,65,65) translate(185.625 38.6)"/><use xlink:href="#d" transform="matrix(1,0,0,1,65,65) translate(262.375 38.6)"/><path d="M580 60h460v80H580z" stroke="#000" stroke-width="2" fill="#fff"/><use xlink:href="#a" transform="matrix(1,0,0,1,585,65) translate(144.67499999999998 38.6)"/><use xlink:href="#e" transform="matrix(1,0,0,1,585,65) translate(192.625 38.6)"/><use xlink:href="#f" transform="matrix(1,0,0,1,585,65) translate(209.625 38.6)"/><path d="M1120 60h120v80h-120z" stroke="#000" stroke-width="2" fill="#fff"/><use xlink:href="#a" transform="matrix(1,0,0,1,1125,65) translate(24.549999999999997 27.799999999999997)"/><use xlink:href="#g" transform="matrix(1,0,0,1,1125,65) translate(72.5 27.799999999999997)"/><use xlink:href="#h" transform="matrix(1,0,0,1,1125,65) translate(4.599999999999994 49.4)"/><path d="M480 268c0 6.63-26.86 12-60 12s-60-5.37-60-12v-96c0-6.63 26.86-12 60-12s60 5.37 60 12z" stroke="#000" stroke-width="2" fill="#fff"/><path d="M480 172c0 6.63-26.86 12-60 12s-60-5.37-60-12" stroke="#000" stroke-width="2" fill="none"/><use xlink:href="#i" transform="matrix(1,0,0,1,365,189) translate(10.599999999999994 25)"/><use xlink:href="#j" transform="matrix(1,0,0,1,365,189) translate(64.45 25)"/><use xlink:href="#k" transform="matrix(1,0,0,1,365,189) translate(30.275 46.6)"/><use xlink:href="#l" transform="matrix(1,0,0,1,365,189) translate(69.225 46.6)"/><use xlink:href="#m" transform="matrix(1,0,0,1,365,189) translate(12.075000000000003 68.2)"/><use xlink:href="#n" transform="matrix(1,0,0,1,365,189) translate(78.025 68.2)"/><path d="M292 180c26.5 0 48 17.9 48 40s-21.5 40-48 40H148c-26.5 0-48-17.9-48-40s21.5-40 48-40z" stroke="#000" stroke-width="2" fill="#fff"/><use xlink:href="#o" transform="matrix(1,0,0,1,105,185) translate(42.675 27.799999999999997)"/><use xlink:href="#p" transform="matrix(1,0,0,1,105,185) translate(152.375 27.799999999999997)"/><use xlink:href="#q" transform="matrix(1,0,0,1,105,185) translate(17.250000000000014 49.4)"/><path d="M260 260v28h40l-80 72-80-72h40v-28z" stroke="#000" stroke-width="2" fill="#fff"/><use xlink:href="#r" transform="matrix(1,-6.432490598706545e-16,6.432490598706545e-16,1,144.99999999999991,265.0000000000001) translate(44.7 49.1)"/><use xlink:href="#s" transform="matrix(1,-6.432490598706545e-16,6.432490598706545e-16,1,144.99999999999991,265.0000000000001) translate(72.65 49.1)"/><path d="M80 360h280v80H80z" stroke="#000" stroke-width="2" fill="#fff"/><use xlink:href="#t" transform="matrix(1,0,0,1,85,365) translate(11.80000000000004 38.6)"/><path d="M80 480h280v80H80z" stroke="#000" stroke-width="2" fill="#fff"/><use xlink:href="#u" transform="matrix(1,0,0,1,85,485) translate(15.175000000000011 38.6)"/><use xlink:href="#v" transform="matrix(1,0,0,1,85,485) translate(187.875 38.6)"/><path d="M220 441v19.76" stroke="#000" stroke-width="2" fill="none"/><path d="M221 441h-2v-1h2zM220 475.76l-4.64-14.26h9.28z"/><path d="M220 479l-6-18.5h12zm-3.26-16.5l3.26 10.03 3.26-10.03z"/><path d="M80 600h280v80H80z" stroke="#000" stroke-width="2" fill="#fff"/><use xlink:href="#w" transform="matrix(1,0,0,1,85,605) translate(13.675000000000011 27.799999999999997)"/><use xlink:href="#x" transform="matrix(1,0,0,1,85,605) translate(235.375 27.799999999999997)"/><use xlink:href="#y" transform="matrix(1,0,0,1,85,605) translate(17.64999999999999 49.4)"/><use xlink:href="#z" transform="matrix(1,0,0,1,85,605) translate(50.599999999999994 49.4)"/><use xlink:href="#A" transform="matrix(1,0,0,1,85,605) translate(94.55 49.4)"/><use xlink:href="#B" transform="matrix(1,0,0,1,85,605) translate(122.5 49.4)"/><use xlink:href="#m" transform="matrix(1,0,0,1,85,605) translate(166.5 49.4)"/><use xlink:href="#n" transform="matrix(1,0,0,1,85,605) translate(232.45 49.4)"/><path d="M220 561v19.76" stroke="#000" stroke-width="2" fill="none"/><path d="M221 561h-2v-1h2zM220 595.76l-4.64-14.26h9.28z"/><path d="M220 599l-6-18.5h12zm-3.26-16.5l3.26 10.03 3.26-10.03z"/><path d="M341 720h38.3V296" stroke="#000" stroke-width="2" fill="none"/><path d="M341 721h-1v-2h1zM383.95 295.28h-9.27L379.3 281z"/><path d="M385.32 296.28H373.3l6-18.5zm-9.27-2h6.52l-3.26-10.03z"/><path d="M812 180c26.5 0 48 17.9 48 40s-21.5 40-48 40H668c-26.5 0-48-17.9-48-40s21.5-40 48-40z" stroke="#000" stroke-width="2" fill="#fff"/><use xlink:href="#C" transform="matrix(1,0,0,1,625,185) translate(42.07499999999999 17)"/><use xlink:href="#D" transform="matrix(1,0,0,1,625,185) translate(120.02499999999999 17)"/><use xlink:href="#E" transform="matrix(1,0,0,1,625,185) translate(9.174999999999983 38.6)"/><use xlink:href="#F" transform="matrix(1,0,0,1,625,185) translate(71.02499999999998 38.6)"/><use xlink:href="#G" transform="matrix(1,0,0,1,625,185) translate(162.975 38.6)"/><use xlink:href="#H" transform="matrix(1,0,0,1,625,185) translate(28.14999999999999 60.2)"/><use xlink:href="#I" transform="matrix(1,0,0,1,625,185) translate(62.099999999999994 60.2)"/><use xlink:href="#J" transform="matrix(1,0,0,1,625,185) translate(147.95 60.2)"/><path d="M600 300h280v60H600z" stroke="#000" stroke-width="2" fill="#fff"/><use xlink:href="#K" transform="matrix(1,0,0,1,605,305) translate(6.349999999999994 18.299999999999997)"/><use xlink:href="#L" transform="matrix(1,0,0,1,605,305) translate(138.95000000000002 18.299999999999997)"/><use xlink:href="#M" transform="matrix(1,0,0,1,605,305) translate(178.9 18.299999999999997)"/><use xlink:href="#y" transform="matrix(1,0,0,1,605,305) translate(198.8 18.299999999999997)"/><use xlink:href="#N" transform="matrix(1,0,0,1,605,305) translate(231.75000000000003 18.299999999999997)"/><use xlink:href="#O" transform="matrix(1,0,0,1,605,305) translate(3.7249999999999943 39.9)"/><use xlink:href="#P" transform="matrix(1,0,0,1,605,305) translate(77.675 39.9)"/><use xlink:href="#Q" transform="matrix(1,0,0,1,605,305) translate(157.525 39.9)"/><use xlink:href="#R" transform="matrix(1,0,0,1,605,305) translate(202.475 39.9)"/><path d="M740 261v19.76" stroke="#000" stroke-width="2" fill="none"/><path d="M741 261h-2v-1h2zM740 295.76l-4.64-14.26h9.28z"/><path d="M740 299l-6-18.5h12zm-3.26-16.5l3.26 10.03 3.26-10.03z"/><path d="M600 400h280v60H600z" stroke="#000" stroke-width="2" fill="#fff"/><use xlink:href="#S" transform="matrix(1,0,0,1,605,405) translate(50.150000000000006 29.1)"/><path d="M100 700h240v40H100z" stroke="#000" stroke-width="2" fill="#fff"/><use xlink:href="#T" transform="matrix(1,0,0,1,105,705) translate(2.125 18.6)"/><use xlink:href="#U" transform="matrix(1,0,0,1,105,705) translate(48.125 18.6)"/><use xlink:href="#V" transform="matrix(1,0,0,1,105,705) translate(110.97500000000001 18.6)"/><use xlink:href="#W" transform="matrix(1,0,0,1,105,705) translate(135.97500000000002 18.6)"/><use xlink:href="#X" transform="matrix(1,0,0,1,105,705) translate(155.97500000000002 18.6)"/><use xlink:href="#Y" transform="matrix(1,0,0,1,105,705) translate(188.925 18.6)"/><path d="M100 760.2h240v53.2H100z" stroke="#000" stroke-width="2" fill="#fff"/><use xlink:href="#Z" transform="matrix(1,0,0,1,105,765.1999999999999) translate(62.574999999999996 14.799999999999999)"/><use xlink:href="#aa" transform="matrix(1,0,0,1,105,765.1999999999999) translate(109.57499999999999 14.799999999999999)"/><use xlink:href="#ab" transform="matrix(1,0,0,1,105,765.1999999999999) translate(144.475 14.799999999999999)"/><use xlink:href="#ac" transform="matrix(1,0,0,1,105,765.1999999999999) translate(39.599999999999994 36.4)"/><path d="M220 681" stroke="#000" stroke-width="2" fill="none"/><path d="M221 681h-2v-1h2zM220 695.76l-4.64-14.26h9.28z"/><path d="M220 699l-6-18.5h12zm-3.26-16.5l3.26 10.03 3.26-10.03z"/><path d="M220 741" stroke="#000" stroke-width="2" fill="none"/><path d="M221 741h-2v-1h2zM220 755.96l-4.64-14.26h9.28z"/><path d="M220 759.2l-6-18.5h12zm-3.26-16.5l3.26 10.03 3.26-10.03z"/><path d="M341 786.8h199V220h60.76" stroke="#000" stroke-width="2" fill="none"/><path d="M341 787.8h-1v-2h1zM615.76 220l-14.26 4.64v-9.28z"/><path d="M619 220l-18.5 6v-12zm-16.5 3.26l10.03-3.26-10.03-3.26z"/><path d="M740 361v19.76" stroke="#000" stroke-width="2" fill="none"/><path d="M741 361h-2v-1h2zM740 395.76l-4.64-14.26h9.28z"/><path d="M740 399l-6-18.5h12zm-3.26-16.5l3.26 10.03 3.26-10.03z"/><path d="M1000.78 277.72V1219H879.24" stroke="#000" stroke-width="2" fill="none"/><path d="M1001.78 277.72h-2v-.82l2-.4zM878.5 1223.64l-14.26-4.64 14.26-4.64z"/><path d="M879.5 1225l-18.5-6 18.5-6zm-12.03-6l10.03 3.26v-6.52z"/><path d="M600 820h280v60H600z" fill="#fff"/><path d="M611.67 820h7.77m7.78 0H635m7.78 0h7.78m7.77 0h7.78m7.8 0h7.77m7.77 0h7.78m7.78 0h7.78m7.78 0h7.77m7.78 0h7.8m7.77 0h7.77m7.78 0H775m7.78 0h7.78m7.77 0h7.78m7.8 0h7.77m7.77 0h7.78m7.78 0h7.78m7.78 0h7.77m7.78 0h3.9v3.75m0 7.5v7.5m0 7.5v7.5m0 7.5v7.5m0 7.5V880h-3.9m-7.77 0h-7.77m-7.78 0H845m-7.78 0h-7.78m-7.77 0h-7.78m-7.8 0h-7.77m-7.77 0h-7.78m-7.78 0h-7.78m-7.78 0h-7.77m-7.78 0h-7.8m-7.77 0h-7.77m-7.78 0H705m-7.78 0h-7.78m-7.77 0h-7.78m-7.8 0h-7.77m-7.77 0h-7.78m-7.78 0h-7.78m-7.78 0h-7.77m-7.78 0H600v-3.75m0-7.5v-7.5m0-7.5v-7.5m0-7.5v-7.5m0-7.5V820h3.9" stroke="#000" stroke-width="2" fill="none"/><use xlink:href="#ad" transform="matrix(1,0,0,1,605,825) translate(15.125 28.6)"/><use xlink:href="#ae" transform="matrix(1,0,0,1,605,825) translate(67.075 28.6)"/><use xlink:href="#af" transform="matrix(1,0,0,1,605,825) translate(108.975 28.6)"/><use xlink:href="#ag" transform="matrix(1,0,0,1,605,825) translate(132.975 28.6)"/><use xlink:href="#ah" transform="matrix(1,0,0,1,605,825) translate(151.92499999999998 28.6)"/><use xlink:href="#b" transform="matrix(1,0,0,1,605,825) translate(199.875 28.6)"/><use xlink:href="#ai" transform="matrix(1,0,0,1,605,825) translate(215.875 28.6)"/><path d="M600 880h280v60H600z" fill="#fff"/><path d="M611.67 880h7.77m7.78 0H635m7.78 0h7.78m7.77 0h7.78m7.8 0h7.77m7.77 0h7.78m7.78 0h7.78m7.78 0h7.77m7.78 0h7.8m7.77 0h7.77m7.78 0H775m7.78 0h7.78m7.77 0h7.78m7.8 0h7.77m7.77 0h7.78m7.78 0h7.78m7.78 0h7.77m7.78 0h3.9v3.75m0 7.5v7.5m0 7.5v7.5m0 7.5v7.5m0 7.5V940h-3.9m-7.77 0h-7.77m-7.78 0H845m-7.78 0h-7.78m-7.77 0h-7.78m-7.8 0h-7.77m-7.77 0h-7.78m-7.78 0h-7.78m-7.78 0h-7.77m-7.78 0h-7.8m-7.77 0h-7.77m-7.78 0H705m-7.78 0h-7.78m-7.77 0h-7.78m-7.8 0h-7.77m-7.77 0h-7.78m-7.78 0h-7.78m-7.78 0h-7.77m-7.78 0H600v-3.75m0-7.5v-7.5m0-7.5v-7.5m0-7.5v-7.5m0-7.5V880h3.9" stroke="#000" stroke-width="2" fill="none"/><use xlink:href="#ad" transform="matrix(1,0,0,1,605,885) translate(5.675000000000011 28.6)"/><use xlink:href="#ae" transform="matrix(1,0,0,1,605,885) translate(57.625000000000014 28.6)"/><use xlink:href="#af" transform="matrix(1,0,0,1,605,885) translate(99.525 28.6)"/><use xlink:href="#ag" transform="matrix(1,0,0,1,605,885) translate(123.525 28.6)"/><use xlink:href="#ah" transform="matrix(1,0,0,1,605,885) translate(142.475 28.6)"/><use xlink:href="#b" transform="matrix(1,0,0,1,605,885) translate(190.425 28.6)"/><use xlink:href="#aj" transform="matrix(1,0,0,1,605,885) translate(206.425 28.6)"/><path d="M812 1420c26.5 0 48 17.9 48 40s-21.5 40-48 40H668c-26.5 0-48-17.9-48-40s21.5-40 48-40z" stroke="#000" stroke-width="2" fill="#fff"/><use xlink:href="#ak" transform="matrix(1,0,0,1,625,1425) translate(57.125 38.6)"/><use xlink:href="#al" transform="matrix(1,0,0,1,625,1425) translate(99.975 38.6)"/><path d="M80 880h280v80H80z" stroke="#000" stroke-width="2" fill="#fff"/><use xlink:href="#am" transform="matrix(1,0,0,1,85,885) translate(17.200000000000017 38.6)"/><path d="M600 1080h280v60H600z" stroke="#000" stroke-width="2" fill="#fff"/><use xlink:href="#an" transform="matrix(1,0,0,1,605,1085) translate(59.599999999999994 28.6)"/><path d="M600 760h280v60H600z" stroke="#000" stroke-width="2" fill="#fff"/><use xlink:href="#ao" transform="matrix(1,0,0,1,605,765) translate(62.625 18.299999999999997)"/><use xlink:href="#ap" transform="matrix(1,0,0,1,605,765) translate(67.625 18.299999999999997)"/><use xlink:href="#aq" transform="matrix(1,0,0,1,605,765) translate(105.575 18.299999999999997)"/><use xlink:href="#ar" transform="matrix(1,0,0,1,605,765) translate(62.05 39.9)"/><path d="M220 841v19.76" stroke="#000" stroke-width="2" fill="none"/><path d="M221 841h-2v-1h2zM220 875.76l-4.64-14.26h9.28z"/><path d="M220 879l-6-18.5h12zm-3.26-16.5l3.26 10.03 3.26-10.03z"/><path d="M881 850h279V158.24" stroke="#000" stroke-width="2" fill="none"/><path d="M881 851h-1v-2h1z"/><path d="M1160 143.24l4.64 14.26h-9.28z" stroke="#000" stroke-width="2"/><path d="M1200 140v770H899.24" stroke="#000" stroke-width="2" fill="none"/><path d="M898.5 914.64L884.24 910l14.26-4.64z"/><path d="M899.5 916l-18.5-6 18.5-6zm-12.03-6l10.03 3.26v-6.52z"/><path d="M620 1160h240v118H620z" stroke="#000" stroke-width="2" fill="#fff"/><use xlink:href="#as" transform="matrix(1,0,0,1,625,1165) translate(8.700000000000003 14.899999999999993)"/><use xlink:href="#y" transform="matrix(1,0,0,1,625,1165) translate(23.700000000000003 14.899999999999993)"/><use xlink:href="#at" transform="matrix(1,0,0,1,625,1165) translate(56.650000000000006 14.899999999999993)"/><use xlink:href="#au" transform="matrix(1,0,0,1,625,1165) translate(93.55 14.899999999999993)"/><use xlink:href="#av" transform="matrix(1,0,0,1,625,1165) translate(111.5 14.899999999999993)"/><use xlink:href="#aw" transform="matrix(1,0,0,1,625,1165) translate(182.39999999999998 14.899999999999993)"/><use xlink:href="#ax" transform="matrix(1,0,0,1,625,1165) translate(61.55 36.49999999999999)"/><use xlink:href="#ay" transform="matrix(1,0,0,1,625,1165) translate(139.5 36.49999999999999)"/><use xlink:href="#az" transform="matrix(1,0,0,1,625,1165) translate(9.474999999999994 58.099999999999994)"/><use xlink:href="#aA" transform="matrix(1,0,0,1,625,1165) translate(147.17499999999998 58.099999999999994)"/><use xlink:href="#aB" transform="matrix(1,0,0,1,625,1165) translate(38.099999999999994 79.70000000000002)"/><use xlink:href="#aC" transform="matrix(1,0,0,1,625,1165) translate(119.95 79.70000000000002)"/><use xlink:href="#aD" transform="matrix(1,0,0,1,625,1165) translate(152.9 79.70000000000002)"/><use xlink:href="#aE" transform="matrix(1,0,0,1,625,1165) translate(78.525 101.30000000000001)"/><path d="M620 1298h240v60H620z" stroke="#000" stroke-width="2" fill="#fff"/><use xlink:href="#aF" transform="matrix(1,0,0,1,625,1303) translate(40.55 18.299999999999997)"/><use xlink:href="#aG" transform="matrix(1,0,0,1,625,1303) translate(87.55 18.299999999999997)"/><use xlink:href="#aH" transform="matrix(1,0,0,1,625,1303) translate(166.5 18.299999999999997)"/><use xlink:href="#aI" transform="matrix(1,0,0,1,625,1303) translate(39.599999999999994 39.9)"/><path d="M740 1141" stroke="#000" stroke-width="2" fill="none"/><path d="M741 1141h-2v-1h2zM740 1155.76l-4.64-14.26h9.28z"/><path d="M740 1159l-6-18.5h12zm-3.26-16.5l3.26 10.03 3.26-10.03z"/><path d="M740 1279" stroke="#000" stroke-width="2" fill="none"/><path d="M741 1279h-2v-1h2zM740 1293.76l-4.64-14.26h9.28z"/><path d="M740 1297l-6-18.5h12zm-3.26-16.5l3.26 10.03 3.26-10.03z"/><path d="M619 1328h-79V920H379.24" stroke="#000" stroke-width="2" fill="none"/><path d="M620 1329h-1v-2h1zM378.5 924.64L364.24 920l14.26-4.64z"/><path d="M379.5 926l-18.5-6 18.5-6zm-12.03-6l10.03 3.26v-6.52z"/><path d="M100 980h240v74.8H100z" stroke="#000" stroke-width="2" fill="#fff"/><use xlink:href="#aJ" transform="matrix(1,0,0,1,105,985) translate(31.650000000000006 14.500000000000002)"/><use xlink:href="#aK" transform="matrix(1,0,0,1,105,985) translate(65.65 14.500000000000002)"/><use xlink:href="#aL" transform="matrix(1,0,0,1,105,985) translate(7.924999999999997 36.1)"/><use xlink:href="#aM" transform="matrix(1,0,0,1,105,985) translate(81.275 36.1)"/><use xlink:href="#aC" transform="matrix(1,0,0,1,105,985) translate(102.22500000000001 36.1)"/><use xlink:href="#aN" transform="matrix(1,0,0,1,105,985) translate(135.175 36.1)"/><use xlink:href="#aO" transform="matrix(1,0,0,1,105,985) translate(213.125 36.1)"/><use xlink:href="#aP" transform="matrix(1,0,0,1,105,985) translate(1.1749999999999972 57.7)"/><use xlink:href="#at" transform="matrix(1,0,0,1,105,985) translate(87.075 57.7)"/><use xlink:href="#aQ" transform="matrix(1,0,0,1,105,985) translate(123.97500000000001 57.7)"/><use xlink:href="#aR" transform="matrix(1,0,0,1,105,985) translate(152.925 57.7)"/><use xlink:href="#aS" transform="matrix(1,0,0,1,105,985) translate(182.925 57.7)"/><path d="M100 1074.8h240v85.2H100z" stroke="#000" stroke-width="2" fill="#fff"/><g><use xlink:href="#aJ" transform="matrix(1,0,0,1,105,1079.8) translate(5.174999999999983 20)"/><use xlink:href="#aT" transform="matrix(1,0,0,1,105,1079.8) translate(39.17499999999998 20)"/><use xlink:href="#aU" transform="matrix(1,0,0,1,105,1079.8) translate(102.02499999999999 20)"/><use xlink:href="#aV" transform="matrix(1,0,0,1,105,1079.8) translate(137.025 20)"/><use xlink:href="#aW" transform="matrix(1,0,0,1,105,1079.8) translate(192.925 20)"/><use xlink:href="#aX" transform="matrix(1,0,0,1,105,1079.8) translate(4.700000000000003 41.6)"/><use xlink:href="#aY" transform="matrix(1,0,0,1,105,1079.8) translate(65.6 41.6)"/><use xlink:href="#aZ" transform="matrix(1,0,0,1,105,1079.8) translate(133.45 41.6)"/><use xlink:href="#ba" transform="matrix(1,0,0,1,105,1079.8) translate(147.39999999999998 41.6)"/><use xlink:href="#bb" transform="matrix(1,0,0,1,105,1079.8) translate(186.39999999999998 41.6)"/><use xlink:href="#bc" transform="matrix(1,0,0,1,105,1079.8) translate(81.05 63.2)"/></g><path d="M341 1117.4h79V299.24" stroke="#000" stroke-width="2" fill="none"/><path d="M341 1118.4h-1v-2h1zM424.64 298.5h-9.28l4.64-14.26z"/><path d="M426 299.5h-12l6-18.5zm-9.26-2h6.52L420 287.47z"/><path d="M100 1180h240v60H100z" stroke="#000" stroke-width="2" fill="#fff"/><g><use xlink:href="#bd" transform="matrix(1,0,0,1,105,1185) translate(49.07499999999999 28.6)"/><use xlink:href="#aE" transform="matrix(1,0,0,1,105,1185) translate(107.975 28.6)"/></g><path d="M220 961" stroke="#000" stroke-width="2" fill="none"/><path d="M221 961h-2v-1h2zM220 975.76l-4.64-14.26h9.28z"/><path d="M220 979l-6-18.5h12zm-3.26-16.5l3.26 10.03 3.26-10.03z"/><path d="M220 1161" stroke="#000" stroke-width="2" fill="none"/><path d="M221 1161h-2v-1h2zM220 1175.76l-4.64-14.26h9.28z"/><path d="M220 1179l-6-18.5h12zm-3.26-16.5l3.26 10.03 3.26-10.03z"/><g><path d="M260 1260v28h40l-80 72-80-72h40v-28z" stroke="#000" stroke-width="2" fill="#fff"/></g><g><use xlink:href="#be" transform="matrix(1,-6.432490598706545e-16,6.432490598706545e-16,1,144.99999999999991,1265.0000000000002) translate(40.574999999999996 37.8)"/><use xlink:href="#bf" transform="matrix(1,-6.432490598706545e-16,6.432490598706545e-16,1,144.99999999999991,1265.0000000000002) translate(68.525 37.8)"/><use xlink:href="#bg" transform="matrix(1,-6.432490598706545e-16,6.432490598706545e-16,1,144.99999999999991,1265.0000000000002) translate(58.175 59.4)"/></g><path d="M292 1360c26.5 0 48 17.9 48 40s-21.5 40-48 40H148c-26.5 0-48-17.9-48-40s21.5-40 48-40z" stroke="#000" stroke-width="2" fill="#fff"/><g><use xlink:href="#ak" transform="matrix(1,0,0,1,105,1365) translate(57.125 38.6)"/><use xlink:href="#al" transform="matrix(1,0,0,1,105,1365) translate(99.975 38.6)"/></g><path d="M460 1340l-18.8 54.1-57.28 1.18 45.65 34.6-16.6 54.84L460 1452l47.02 32.72-16.6-54.83 45.66-34.62-57.27-1.17z" stroke="#000" stroke-width="2" fill="#fff"/><g><use xlink:href="#bh" transform="matrix(1,0,0,1,385,1345) translate(56 78.60000000000001)"/></g><path d="M460 277.88V1321.76" stroke="#000" stroke-width="2" fill="none"/><path d="M461 277.88h-2v-.83l2-.4zM460 1336.76l-4.64-14.26h9.28z"/><path d="M460 1340l-6-18.5h12zm-3.26-16.5l3.26 10.03 3.26-10.03z"/><path d="M80 680h280v160H80z" fill-opacity="0"/><path d="M91.67 680h7.77m7.78 0H115m7.78 0h7.78m7.77 0h7.78m7.8 0h7.77m7.77 0h7.78m7.78 0h7.78m7.78 0h7.77m7.78 0h7.8m7.77 0h7.77m7.78 0H255m7.78 0h7.78m7.77 0h7.78m7.8 0h7.77m7.77 0h7.78m7.78 0h7.78m7.78 0h7.77m7.78 0h3.9v4m0 8v8m0 8v8m0 8v8m0 8v8m0 8v8m0 8v8m0 8v8m0 8v8m0 8v8m0 8v4h-3.9m-7.77 0h-7.77m-7.78 0H325m-7.78 0h-7.78m-7.77 0h-7.78m-7.8 0h-7.77m-7.77 0h-7.78m-7.78 0h-7.78m-7.78 0h-7.77m-7.78 0h-7.8m-7.77 0h-7.77m-7.78 0H185m-7.78 0h-7.78m-7.77 0h-7.78m-7.8 0h-7.77m-7.77 0h-7.78m-7.78 0h-7.78m-7.78 0h-7.77m-7.78 0H80v-4m0-8v-8m0-8v-8m0-8v-8m0-8v-8m0-8v-8m0-8v-8m0-8v-8m0-8v-8m0-8v-8m0-8v-4h3.9" stroke="#000" stroke-width="2" fill="none"/><path d="M600 500h280v120H600z" stroke="#000" stroke-width="2" fill="#fff"/><g><use xlink:href="#ao" transform="matrix(1,0,0,1,605,505) translate(29.67500000000001 26.19999999999999)"/><use xlink:href="#ap" transform="matrix(1,0,0,1,605,505) translate(34.67500000000001 26.19999999999999)"/><use xlink:href="#bi" transform="matrix(1,0,0,1,605,505) translate(72.62500000000001 26.19999999999999)"/><use xlink:href="#bj" transform="matrix(1,0,0,1,605,505) translate(10.200000000000003 47.79999999999999)"/><use xlink:href="#bk" transform="matrix(1,0,0,1,605,505) translate(87.05000000000001 47.79999999999999)"/><use xlink:href="#au" transform="matrix(1,0,0,1,605,505) translate(149.95 47.79999999999999)"/><use xlink:href="#bl" transform="matrix(1,0,0,1,605,505) translate(167.89999999999998 47.79999999999999)"/><use xlink:href="#bm" transform="matrix(1,0,0,1,605,505) translate(8.224999999999994 69.39999999999999)"/><use xlink:href="#aZ" transform="matrix(1,0,0,1,605,505) translate(46.175 69.39999999999999)"/><use xlink:href="#y" transform="matrix(1,0,0,1,605,505) translate(60.125 69.39999999999999)"/><use xlink:href="#at" transform="matrix(1,0,0,1,605,505) translate(93.075 69.39999999999999)"/><use xlink:href="#O" transform="matrix(1,0,0,1,605,505) translate(129.975 69.39999999999999)"/><use xlink:href="#bn" transform="matrix(1,0,0,1,605,505) translate(203.92499999999998 69.39999999999999)"/><use xlink:href="#aU" transform="matrix(1,0,0,1,605,505) translate(25.72500000000001 91)"/><use xlink:href="#bo" transform="matrix(1,0,0,1,605,505) translate(60.72500000000001 91)"/><use xlink:href="#at" transform="matrix(1,0,0,1,605,505) translate(123.525 91)"/><use xlink:href="#au" transform="matrix(1,0,0,1,605,505) translate(160.425 91)"/><use xlink:href="#bp" transform="matrix(1,0,0,1,605,505) translate(178.375 91)"/></g><path d="M740 461v19.76" stroke="#000" stroke-width="2" fill="none"/><path d="M741 461h-2v-1h2zM740 495.76l-4.64-14.26h9.28z"/><path d="M740 499l-6-18.5h12zm-3.26-16.5l3.26 10.03 3.26-10.03z"/><path d="M600 660h280v60H600z" stroke="#000" stroke-width="2" fill="#fff"/><g><use xlink:href="#bq" transform="matrix(1,0,0,1,605,665) translate(34.624999999999986 29.1)"/><use xlink:href="#ax" transform="matrix(1,0,0,1,605,665) translate(104.52499999999999 29.1)"/><use xlink:href="#br" transform="matrix(1,0,0,1,605,665) translate(182.47500000000002 29.1)"/><use xlink:href="#bs" transform="matrix(1,0,0,1,605,665) translate(223.375 29.1)"/></g><path d="M740 621v19.76" stroke="#000" stroke-width="2" fill="none"/><path d="M741 621h-2v-1h2zM740 655.76l-4.64-14.26h9.28z"/><path d="M740 659l-6-18.5h12zm-3.26-16.5l3.26 10.03 3.26-10.03z"/><path d="M740 721v19.76" stroke="#000" stroke-width="2" fill="none"/><path d="M741 721h-2v-1h2zM740 755.76l-4.64-14.26h9.28z"/><path d="M740 759l-6-18.5h12zm-3.26-16.5l3.26 10.03 3.26-10.03z"/><path d="M220 1055.8" stroke="#000" stroke-width="2" fill="none"/><path d="M221 1055.8h-2v-1h2zM220 1070.56l-4.64-14.26h9.28z"/><path d="M220 1073.8l-6-18.5h12zm-3.26-16.5l3.26 10.03 3.26-10.03z"/><path d="M600 980h280v60H600z" stroke="#000" stroke-width="2" fill="#fff"/><g><use xlink:href="#bt" transform="matrix(1,0,0,1,605,985) translate(7.25 18.299999999999997)"/><use xlink:href="#bu" transform="matrix(1,0,0,1,605,985) translate(63.150000000000006 18.299999999999997)"/><use xlink:href="#bv" transform="matrix(1,0,0,1,605,985) translate(126.00000000000001 18.299999999999997)"/><use xlink:href="#bw" transform="matrix(1,0,0,1,605,985) translate(146 18.299999999999997)"/><use xlink:href="#N" transform="matrix(1,0,0,1,605,985) translate(230.85 18.299999999999997)"/><use xlink:href="#bx" transform="matrix(1,0,0,1,605,985) translate(57.17499999999998 39.9)"/><use xlink:href="#aX" transform="matrix(1,0,0,1,605,985) translate(94.07499999999999 39.9)"/><use xlink:href="#by" transform="matrix(1,0,0,1,605,985) translate(154.975 39.9)"/></g><path d="M1020 268c0 6.63-26.86 12-60 12s-60-5.37-60-12v-96c0-6.63 26.86-12 60-12s60 5.37 60 12z" stroke="#000" stroke-width="2" fill="#fff"/><path d="M1020 172c0 6.63-26.86 12-60 12s-60-5.37-60-12" stroke="#000" stroke-width="2" fill="none"/><g><use xlink:href="#i" transform="matrix(1,0,0,1,905,189) translate(10.599999999999994 25)"/><use xlink:href="#j" transform="matrix(1,0,0,1,905,189) translate(64.45 25)"/><use xlink:href="#k" transform="matrix(1,0,0,1,905,189) translate(30.275 46.6)"/><use xlink:href="#l" transform="matrix(1,0,0,1,905,189) translate(69.225 46.6)"/><use xlink:href="#m" transform="matrix(1,0,0,1,905,189) translate(12.075000000000003 68.2)"/><use xlink:href="#n" transform="matrix(1,0,0,1,905,189) translate(78.025 68.2)"/></g><path d="M881 330h40.78v-33.52" stroke="#000" stroke-width="2" fill="none"/><path d="M881 331h-1v-2h1zM926.4 295.74h-9.26l4.64-14.26z"/><path d="M927.8 296.74h-12.04l6.02-18.5zm-9.28-2h6.52l-3.26-10.03z"/><path d="M740 941v19.76" stroke="#000" stroke-width="2" fill="none"/><path d="M741 941h-2v-1h2zM740 975.76l-4.64-14.26h9.28z"/><path d="M740 979l-6-18.5h12zm-3.26-16.5l3.26 10.03 3.26-10.03z"/><path d="M740 1041v19.76" stroke="#000" stroke-width="2" fill="none"/><path d="M741 1041h-2v-1h2zM740 1075.76l-4.64-14.26h9.28z"/><path d="M740 1079l-6-18.5h12zm-3.26-16.5l3.26 10.03 3.26-10.03z"/><path d="M881 1010h79V299.24" stroke="#000" stroke-width="2" fill="none"/><path d="M881 1011h-1v-2h1zM964.64 298.5h-9.28l4.64-14.26z"/><path d="M966 299.5h-12l6-18.5zm-9.26-2h6.52L960 287.47z"/><path d="M600 1140h280v240H600z" fill-opacity="0"/><path d="M611.67 1140h7.77m7.78 0H635m7.78 0h7.78m7.77 0h7.78m7.8 0h7.77m7.77 0h7.78m7.78 0h7.78m7.78 0h7.77m7.78 0h7.8m7.77 0h7.77m7.78 0H775m7.78 0h7.78m7.77 0h7.78m7.8 0h7.77m7.77 0h7.78m7.78 0h7.78m7.78 0h7.77m7.78 0h3.9v4m0 8v8m0 8v8m0 8v8m0 8v8m0 8v8m0 8v8m0 8v8m0 8v8m0 8v8m0 8v8m0 8v8m0 8v8m0 8v8m0 8v8m0 8v4h-3.9m-7.77 0h-7.77m-7.78 0H845m-7.78 0h-7.78m-7.77 0h-7.78m-7.8 0h-7.77m-7.77 0h-7.78m-7.78 0h-7.78m-7.78 0h-7.77m-7.78 0h-7.8m-7.77 0h-7.77m-7.78 0H705m-7.78 0h-7.78m-7.77 0h-7.78m-7.8 0h-7.77m-7.77 0h-7.78m-7.78 0h-7.78m-7.78 0h-7.77m-7.78 0H600v-4m0-8v-8m0-8v-8m0-8v-8m0-8v-8m0-8v-8m0-8v-8m0-8v-8m0-8v-8m0-8v-8m0-8v-8m0-8v-8m0-8v-8m0-8v-8m0-8v-8m0-8v-4h3.9M740 1381v19.76" stroke="#000" stroke-width="2" fill="none"/><path d="M741 1381h-2v-1h2zM740 1415.76l-4.64-14.26h9.28z"/><path d="M740 1419l-6-18.5h12zm-3.26-16.5l3.26 10.03 3.26-10.03z"/><path d="M80 960h280v300H80z" fill-opacity="0"/><path d="M91.67 960h7.77m7.78 0H115m7.78 0h7.78m7.77 0h7.78m7.8 0h7.77m7.77 0h7.78m7.78 0h7.78m7.78 0h7.77m7.78 0h7.8m7.77 0h7.77m7.78 0H255m7.78 0h7.78m7.77 0h7.78m7.8 0h7.77m7.77 0h7.78m7.78 0h7.78m7.78 0h7.77m7.78 0h3.9v3.95m0 7.9v7.9m0 7.88v7.9m0 7.9v7.9m0 7.88v7.9m0 7.9v7.9m0 7.9v7.88m0 7.9v7.9m0 7.9v7.88m0 7.9v7.9m0 7.9v7.88m0 7.9v7.9m0 7.9v7.88m0 7.9v7.9m0 7.9v7.88m0 7.9v7.9m0 7.88v7.9m0 7.9v7.9m0 7.88v7.9m0 7.9v3.94h-3.9m-7.77 0h-7.77m-7.78 0H325m-7.78 0h-7.78m-7.77 0h-7.78m-7.8 0h-7.77m-7.77 0h-7.78m-7.78 0h-7.78m-7.78 0h-7.77m-7.78 0h-7.8m-7.77 0h-7.77m-7.78 0H185m-7.78 0h-7.78m-7.77 0h-7.78m-7.8 0h-7.77m-7.77 0h-7.78m-7.78 0h-7.78m-7.78 0h-7.77m-7.78 0H80v-3.95m0-7.9v-7.9m0-7.88v-7.9m0-7.9v-7.9m0-7.88v-7.9m0-7.9v-7.9m0-7.9v-7.88m0-7.9v-7.9m0-7.9v-7.88m0-7.9v-7.9m0-7.9v-7.88m0-7.9v-7.9m0-7.9v-7.88m0-7.9v-7.9m0-7.9V1035m0-7.9v-7.9m0-7.88v-7.9m0-7.9v-7.9m0-7.88v-7.9m0-7.9V960h3.9" stroke="#000" stroke-width="2" fill="none"/><defs><path d="M190 0L58-211 59 0H30v-248h39L202-35l-2-213h31V0h-41" id="bz"/><path d="M100-194c62-1 85 37 85 99 1 63-27 99-86 99S16-35 15-95c0-66 28-99 85-99zM99-20c44 1 53-31 53-75 0-43-8-75-51-75s-53 32-53 75 10 74 51 75" id="bA"/><path d="M85-194c31 0 48 13 60 33l-1-100h32l1 261h-30c-2-10 0-23-3-31C134-8 116 4 85 4 32 4 16-35 15-94c0-66 23-100 70-100zm9 24c-40 0-46 34-46 75 0 40 6 74 45 74 42 0 51-32 51-76 0-42-9-74-50-73" id="bB"/><path d="M100-194c63 0 86 42 84 106H49c0 40 14 67 53 68 26 1 43-12 49-29l28 8c-11 28-37 45-77 45C44 4 14-33 15-96c1-61 26-98 85-98zm52 81c6-60-76-77-97-28-3 7-6 17-6 28h103" id="bC"/><g id="a"><use transform="matrix(0.05,0,0,0.05,0,0)" xlink:href="#bz"/><use transform="matrix(0.05,0,0,0.05,12.950000000000001,0)" xlink:href="#bA"/><use transform="matrix(0.05,0,0,0.05,22.950000000000003,0)" xlink:href="#bB"/><use transform="matrix(0.05,0,0,0.05,32.95,0)" xlink:href="#bC"/></g><path d="M205 0l-28-72H64L36 0H1l101-248h38L239 0h-34zm-38-99l-47-123c-12 45-31 82-46 123h93" id="bD"/><use transform="matrix(0.05,0,0,0.05,0,0)" xlink:href="#bD" id="b"/><path d="M87 75C49 33 22-17 22-94c0-76 28-126 65-167h31c-38 41-64 92-64 168S80 34 118 75H87" id="bE"/><path d="M24-231v-30h32v30H24zM24 0v-190h32V0H24" id="bF"/><path d="M117-194c89-4 53 116 60 194h-32v-121c0-31-8-49-39-48C34-167 62-67 57 0H25l-1-190h30c1 10-1 24 2 32 11-22 29-35 61-36" id="bG"/><path d="M59-47c-2 24 18 29 38 22v24C64 9 27 4 27-40v-127H5v-23h24l9-43h21v43h35v23H59v120" id="bH"/><path d="M141-36C126-15 110 5 73 4 37 3 15-17 15-53c-1-64 63-63 125-63 3-35-9-54-41-54-24 1-41 7-42 31l-33-3c5-37 33-52 76-52 45 0 72 20 72 64v82c-1 20 7 32 28 27v20c-31 9-61-2-59-35zM48-53c0 20 12 33 32 33 41-3 63-29 60-74-43 2-92-5-92 41" id="bI"/><path d="M177-190C167-65 218 103 67 71c-23-6-38-20-44-43l32-5c15 47 100 32 89-28v-30C133-14 115 1 83 1 29 1 15-40 15-95c0-56 16-97 71-98 29-1 48 16 59 35 1-10 0-23 2-32h30zM94-22c36 0 50-32 50-73 0-42-14-75-50-75-39 0-46 34-46 75s6 73 46 73" id="bJ"/><g id="c"><use transform="matrix(0.05,0,0,0.05,0,0)" xlink:href="#bE"/><use transform="matrix(0.05,0,0,0.05,5.95,0)" xlink:href="#bF"/><use transform="matrix(0.05,0,0,0.05,9.9,0)" xlink:href="#bG"/><use transform="matrix(0.05,0,0,0.05,19.9,0)" xlink:href="#bF"/><use transform="matrix(0.05,0,0,0.05,23.849999999999998,0)" xlink:href="#bH"/><use transform="matrix(0.05,0,0,0.05,28.849999999999994,0)" xlink:href="#bF"/><use transform="matrix(0.05,0,0,0.05,32.8,0)" xlink:href="#bI"/><use transform="matrix(0.05,0,0,0.05,42.8,0)" xlink:href="#bH"/><use transform="matrix(0.05,0,0,0.05,47.8,0)" xlink:href="#bF"/><use transform="matrix(0.05,0,0,0.05,51.75,0)" xlink:href="#bG"/><use transform="matrix(0.05,0,0,0.05,61.75,0)" xlink:href="#bJ"/></g><path d="M33-261c38 41 65 92 65 168S71 34 33 75H2C39 34 66-17 66-93S39-220 2-261h31" id="bK"/><g id="d"><use transform="matrix(0.05,0,0,0.05,0,0)" xlink:href="#bG"/><use transform="matrix(0.05,0,0,0.05,10,0)" xlink:href="#bA"/><use transform="matrix(0.05,0,0,0.05,20,0)" xlink:href="#bB"/><use transform="matrix(0.05,0,0,0.05,30,0)" xlink:href="#bC"/><use transform="matrix(0.05,0,0,0.05,40,0)" xlink:href="#bK"/></g><path d="M160-131c35 5 61 23 61 61C221 17 115-2 30 0v-248c76 3 177-17 177 60 0 33-19 50-47 57zm-97-11c50-1 110 9 110-42 0-47-63-36-110-37v79zm0 115c55-2 124 14 124-45 0-56-70-42-124-44v89" id="bL"/><use transform="matrix(0.05,0,0,0.05,0,0)" xlink:href="#bL" id="e"/><path d="M101-234c-31-9-42 10-38 44h38v23H63V0H32v-167H5v-23h27c-7-52 17-82 69-68v24" id="bM"/><path d="M114-163C36-179 61-72 57 0H25l-1-190h30c1 12-1 29 2 39 6-27 23-49 58-41v29" id="bN"/><path d="M206 0h-36l-40-164L89 0H53L-1-190h32L70-26l43-164h34l41 164 42-164h31" id="bO"/><g id="f"><use transform="matrix(0.05,0,0,0.05,0,0)" xlink:href="#bE"/><use transform="matrix(0.05,0,0,0.05,5.95,0)" xlink:href="#bM"/><use transform="matrix(0.05,0,0,0.05,10.95,0)" xlink:href="#bA"/><use transform="matrix(0.05,0,0,0.05,20.95,0)" xlink:href="#bN"/><use transform="matrix(0.05,0,0,0.05,26.899999999999995,0)" xlink:href="#bO"/><use transform="matrix(0.05,0,0,0.05,39.85,0)" xlink:href="#bI"/><use transform="matrix(0.05,0,0,0.05,49.85,0)" xlink:href="#bN"/><use transform="matrix(0.05,0,0,0.05,55.800000000000004,0)" xlink:href="#bB"/><use transform="matrix(0.05,0,0,0.05,65.80000000000001,0)" xlink:href="#bF"/><use transform="matrix(0.05,0,0,0.05,69.75000000000001,0)" xlink:href="#bG"/><use transform="matrix(0.05,0,0,0.05,79.75000000000001,0)" xlink:href="#bJ"/><use transform="matrix(0.05,0,0,0.05,89.75000000000001,0)" xlink:href="#bK"/></g><path d="M212-179c-10-28-35-45-73-45-59 0-87 40-87 99 0 60 29 101 89 101 43 0 62-24 78-52l27 14C228-24 195 4 139 4 59 4 22-46 18-125c-6-104 99-153 187-111 19 9 31 26 39 46" id="bP"/><use transform="matrix(0.05,0,0,0.05,0,0)" xlink:href="#bP" id="g"/><path d="M135-143c-3-34-86-38-87 0 15 53 115 12 119 90S17 21 10-45l28-5c4 36 97 45 98 0-10-56-113-15-118-90-4-57 82-63 122-42 12 7 21 19 24 35" id="bQ"/><path d="M115-194c55 1 70 41 70 98S169 2 115 4C84 4 66-9 55-30l1 105H24l-1-265h31l2 30c10-21 28-34 59-34zm-8 174c40 0 45-34 45-75s-6-73-45-74c-42 0-51 32-51 76 0 43 10 73 51 73" id="bR"/><g id="h"><use transform="matrix(0.05,0,0,0.05,0,0)" xlink:href="#bE"/><use transform="matrix(0.05,0,0,0.05,5.95,0)" xlink:href="#bN"/><use transform="matrix(0.05,0,0,0.05,11.9,0)" xlink:href="#bC"/><use transform="matrix(0.05,0,0,0.05,21.9,0)" xlink:href="#bQ"/><use transform="matrix(0.05,0,0,0.05,30.899999999999995,0)" xlink:href="#bR"/><use transform="matrix(0.05,0,0,0.05,40.9,0)" xlink:href="#bA"/><use transform="matrix(0.05,0,0,0.05,50.9,0)" xlink:href="#bG"/><use transform="matrix(0.05,0,0,0.05,60.900000000000006,0)" xlink:href="#bB"/><use transform="matrix(0.05,0,0,0.05,70.9,0)" xlink:href="#bF"/><use transform="matrix(0.05,0,0,0.05,74.85000000000001,0)" xlink:href="#bG"/><use transform="matrix(0.05,0,0,0.05,84.85000000000001,0)" xlink:href="#bJ"/><use transform="matrix(0.05,0,0,0.05,94.85000000000001,0)" xlink:href="#bK"/></g><path d="M240 0l2-218c-23 76-54 145-80 218h-23L58-218 59 0H30v-248h44l77 211c21-75 51-140 76-211h43V0h-30" id="bS"/><path d="M96-169c-40 0-48 33-48 73s9 75 48 75c24 0 41-14 43-38l32 2c-6 37-31 61-74 61-59 0-76-41-82-99-10-93 101-131 147-64 4 7 5 14 7 22l-32 3c-4-21-16-35-41-35" id="bT"/><g id="i"><use transform="matrix(0.05,0,0,0.05,0,0)" xlink:href="#bS"/><use transform="matrix(0.05,0,0,0.05,14.950000000000001,0)" xlink:href="#bC"/><use transform="matrix(0.05,0,0,0.05,24.950000000000003,0)" xlink:href="#bH"/><use transform="matrix(0.05,0,0,0.05,29.950000000000003,0)" xlink:href="#bN"/><use transform="matrix(0.05,0,0,0.05,35.900000000000006,0)" xlink:href="#bF"/><use transform="matrix(0.05,0,0,0.05,39.85000000000001,0)" xlink:href="#bT"/></g><path d="M210-169c-67 3-38 105-44 169h-31v-121c0-29-5-50-35-48C34-165 62-65 56 0H25l-1-190h30c1 10-1 24 2 32 10-44 99-50 107 0 11-21 27-35 58-36 85-2 47 119 55 194h-31v-121c0-29-5-49-35-48" id="bU"/><g id="j"><use transform="matrix(0.05,0,0,0.05,0,0)" xlink:href="#bU"/><use transform="matrix(0.05,0,0,0.05,14.950000000000001,0)" xlink:href="#bI"/><use transform="matrix(0.05,0,0,0.05,24.950000000000003,0)" xlink:href="#bR"/></g><path d="M143 0L79-87 56-68V0H24v-261h32v163l83-92h37l-77 82L181 0h-38" id="bV"/><path d="M179-190L93 31C79 59 56 82 12 73V49c39 6 53-20 64-50L1-190h34L92-34l54-156h33" id="bW"/><g id="k"><use transform="matrix(0.05,0,0,0.05,0,0)" xlink:href="#bE"/><use transform="matrix(0.05,0,0,0.05,5.95,0)" xlink:href="#bV"/><use transform="matrix(0.05,0,0,0.05,14.949999999999998,0)" xlink:href="#bC"/><use transform="matrix(0.05,0,0,0.05,24.95,0)" xlink:href="#bW"/></g><path d="M18-150v-26h174v26H18zm0 90v-26h174v26H18" id="bX"/><use transform="matrix(0.05,0,0,0.05,0,0)" xlink:href="#bX" id="l"/><g id="m"><use transform="matrix(0.05,0,0,0.05,0,0)" xlink:href="#bQ"/><use transform="matrix(0.05,0,0,0.05,9,0)" xlink:href="#bC"/><use transform="matrix(0.05,0,0,0.05,19,0)" xlink:href="#bQ"/><use transform="matrix(0.05,0,0,0.05,28,0)" xlink:href="#bQ"/><use transform="matrix(0.05,0,0,0.05,37,0)" xlink:href="#bF"/><use transform="matrix(0.05,0,0,0.05,40.95,0)" xlink:href="#bA"/><use transform="matrix(0.05,0,0,0.05,50.95,0)" xlink:href="#bG"/></g><g id="n"><use transform="matrix(0.05,0,0,0.05,0,0)" xlink:href="#bF"/><use transform="matrix(0.05,0,0,0.05,3.95,0)" xlink:href="#bB"/><use transform="matrix(0.05,0,0,0.05,13.949999999999998,0)" xlink:href="#bK"/></g><path d="M33 0v-248h34V0H33" id="bY"/><path d="M63-220v92h138v28H63V0H30v-248h175v28H63" id="bZ"/><path d="M24 0v-261h32V0H24" id="ca"/><g id="o"><use transform="matrix(0.05,0,0,0.05,0,0)" xlink:href="#bY"/><use transform="matrix(0.05,0,0,0.05,5,0)" xlink:href="#bG"/><use transform="matrix(0.05,0,0,0.05,15,0)" xlink:href="#bF"/><use transform="matrix(0.05,0,0,0.05,18.95,0)" xlink:href="#bH"/><use transform="matrix(0.05,0,0,0.05,23.95,0)" xlink:href="#bF"/><use transform="matrix(0.05,0,0,0.05,27.899999999999995,0)" xlink:href="#bI"/><use transform="matrix(0.05,0,0,0.05,37.9,0)" xlink:href="#bH"/><use transform="matrix(0.05,0,0,0.05,42.9,0)" xlink:href="#bF"/><use transform="matrix(0.05,0,0,0.05,46.85,0)" xlink:href="#bG"/><use transform="matrix(0.05,0,0,0.05,56.85,0)" xlink:href="#bJ"/><use transform="matrix(0.05,0,0,0.05,66.85,0)" xlink:href="#bZ"/><use transform="matrix(0.05,0,0,0.05,77.8,0)" xlink:href="#ca"/><use transform="matrix(0.05,0,0,0.05,81.75,0)" xlink:href="#bA"/><use transform="matrix(0.05,0,0,0.05,91.75,0)" xlink:href="#bO"/></g><g id="p"><use transform="matrix(0.05,0,0,0.05,0,0)" xlink:href="#bQ"/><use transform="matrix(0.05,0,0,0.05,9,0)" xlink:href="#bH"/><use transform="matrix(0.05,0,0,0.05,14,0)" xlink:href="#bI"/><use transform="matrix(0.05,0,0,0.05,24,0)" xlink:href="#bN"/><use transform="matrix(0.05,0,0,0.05,29.950000000000003,0)" xlink:href="#bH"/></g><path d="M30 0v-248h33v221h125V0H30" id="cb"/><path d="M158-156l-14 65h45v19h-49L124 0h-19l15-72H56L41 0H22l15-72H2v-19h39l14-65H11v-19h48l15-71h20l-16 71h64l16-71h19l-16 71h37v19h-40zm-83 0L61-91h63l14-65H75" id="cc"/><g id="q"><use transform="matrix(0.05,0,0,0.05,0,0)" xlink:href="#bE"/><use transform="matrix(0.05,0,0,0.05,5.95,0)" xlink:href="#bS"/><use transform="matrix(0.05,0,0,0.05,20.900000000000002,0)" xlink:href="#bC"/><use transform="matrix(0.05,0,0,0.05,30.900000000000002,0)" xlink:href="#bH"/><use transform="matrix(0.05,0,0,0.05,35.900000000000006,0)" xlink:href="#bC"/><use transform="matrix(0.05,0,0,0.05,45.900000000000006,0)" xlink:href="#bN"/><use transform="matrix(0.05,0,0,0.05,51.85,0)" xlink:href="#bC"/><use transform="matrix(0.05,0,0,0.05,61.85,0)" xlink:href="#bB"/><use transform="matrix(0.05,0,0,0.05,71.85000000000001,0)" xlink:href="#bZ"/><use transform="matrix(0.05,0,0,0.05,82.80000000000001,0)" xlink:href="#ca"/><use transform="matrix(0.05,0,0,0.05,86.75000000000001,0)" xlink:href="#bA"/><use transform="matrix(0.05,0,0,0.05,96.75000000000001,0)" xlink:href="#bO"/><use transform="matrix(0.05,0,0,0.05,109.7,0)" xlink:href="#cb"/><use transform="matrix(0.05,0,0,0.05,119.7,0)" xlink:href="#bA"/><use transform="matrix(0.05,0,0,0.05,129.70000000000002,0)" xlink:href="#bJ"/><use transform="matrix(0.05,0,0,0.05,139.70000000000002,0)" xlink:href="#bF"/><use transform="matrix(0.05,0,0,0.05,143.65,0)" xlink:href="#bT"/><use transform="matrix(0.05,0,0,0.05,152.65,0)" xlink:href="#cc"/><use transform="matrix(0.05,0,0,0.05,162.65,0)" xlink:href="#bT"/><use transform="matrix(0.05,0,0,0.05,171.65,0)" xlink:href="#bI"/><use transform="matrix(0.05,0,0,0.05,181.65,0)" xlink:href="#ca"/><use transform="matrix(0.05,0,0,0.05,185.6,0)" xlink:href="#ca"/><use transform="matrix(0.05,0,0,0.05,189.54999999999998,0)" xlink:href="#bK"/></g><path d="M30-248c118-7 216 8 213 122C240-48 200 0 122 0H30v-248zM63-27c89 8 146-16 146-99s-60-101-146-95v194" id="cd"/><g id="r"><use transform="matrix(0.05,0,0,0.05,0,0)" xlink:href="#cd"/><use transform="matrix(0.05,0,0,0.05,12.950000000000001,0)" xlink:href="#bA"/></g><path d="M84 4C-5 8 30-112 23-190h32v120c0 31 7 50 39 49 72-2 45-101 50-169h31l1 190h-30c-1-10 1-25-2-33-11 22-28 36-60 37" id="ce"/><g id="s"><use transform="matrix(0.05,0,0,0.05,0,0)" xlink:href="#bQ"/><use transform="matrix(0.05,0,0,0.05,9,0)" xlink:href="#bH"/><use transform="matrix(0.05,0,0,0.05,14,0)" xlink:href="#ce"/><use transform="matrix(0.05,0,0,0.05,24,0)" xlink:href="#bM"/><use transform="matrix(0.05,0,0,0.05,28.649999999999995,0)" xlink:href="#bM"/></g><g id="t"><use transform="matrix(0.05,0,0,0.05,0,0)" xlink:href="#bS"/><use transform="matrix(0.05,0,0,0.05,14.950000000000001,0)" xlink:href="#bC"/><use transform="matrix(0.05,0,0,0.05,24.950000000000003,0)" xlink:href="#bH"/><use transform="matrix(0.05,0,0,0.05,29.950000000000003,0)" xlink:href="#bC"/><use transform="matrix(0.05,0,0,0.05,39.95,0)" xlink:href="#bN"/><use transform="matrix(0.05,0,0,0.05,45.900000000000006,0)" xlink:href="#bC"/><use transform="matrix(0.05,0,0,0.05,55.900000000000006,0)" xlink:href="#bB"/><use transform="matrix(0.05,0,0,0.05,65.9,0)" xlink:href="#bZ"/><use transform="matrix(0.05,0,0,0.05,76.85000000000001,0)" xlink:href="#ca"/><use transform="matrix(0.05,0,0,0.05,80.80000000000001,0)" xlink:href="#bA"/><use transform="matrix(0.05,0,0,0.05,90.80000000000001,0)" xlink:href="#bO"/><use transform="matrix(0.05,0,0,0.05,103.75,0)" xlink:href="#cb"/><use transform="matrix(0.05,0,0,0.05,113.75,0)" xlink:href="#bA"/><use transform="matrix(0.05,0,0,0.05,123.75,0)" xlink:href="#bJ"/><use transform="matrix(0.05,0,0,0.05,133.75,0)" xlink:href="#bF"/><use transform="matrix(0.05,0,0,0.05,137.7,0)" xlink:href="#bT"/><use transform="matrix(0.05,0,0,0.05,146.7,0)" xlink:href="#cc"/><use transform="matrix(0.05,0,0,0.05,156.7,0)" xlink:href="#bF"/><use transform="matrix(0.05,0,0,0.05,160.64999999999998,0)" xlink:href="#bG"/><use transform="matrix(0.05,0,0,0.05,170.64999999999998,0)" xlink:href="#bF"/><use transform="matrix(0.05,0,0,0.05,174.59999999999997,0)" xlink:href="#bH"/><use transform="matrix(0.05,0,0,0.05,179.59999999999997,0)" xlink:href="#bF"/><use transform="matrix(0.05,0,0,0.05,183.54999999999995,0)" xlink:href="#bI"/><use transform="matrix(0.05,0,0,0.05,193.54999999999995,0)" xlink:href="#bH"/><use transform="matrix(0.05,0,0,0.05,198.54999999999995,0)" xlink:href="#bC"/><use transform="matrix(0.05,0,0,0.05,208.54999999999995,0)" xlink:href="#bZ"/><use transform="matrix(0.05,0,0,0.05,219.49999999999991,0)" xlink:href="#ca"/><use transform="matrix(0.05,0,0,0.05,223.44999999999993,0)" xlink:href="#bA"/><use transform="matrix(0.05,0,0,0.05,233.44999999999993,0)" xlink:href="#bO"/></g><path d="M185-189c-5-48-123-54-124 2 14 75 158 14 163 119 3 78-121 87-175 55-17-10-28-26-33-46l33-7c5 56 141 63 141-1 0-78-155-14-162-118-5-82 145-84 179-34 5 7 8 16 11 25" id="cf"/><g id="u"><use transform="matrix(0.05,0,0,0.05,0,0)" xlink:href="#bS"/><use transform="matrix(0.05,0,0,0.05,14.950000000000001,0)" xlink:href="#bC"/><use transform="matrix(0.05,0,0,0.05,24.950000000000003,0)" xlink:href="#bH"/><use transform="matrix(0.05,0,0,0.05,29.950000000000003,0)" xlink:href="#bC"/><use transform="matrix(0.05,0,0,0.05,39.95,0)" xlink:href="#bN"/><use transform="matrix(0.05,0,0,0.05,45.900000000000006,0)" xlink:href="#bC"/><use transform="matrix(0.05,0,0,0.05,55.900000000000006,0)" xlink:href="#bB"/><use transform="matrix(0.05,0,0,0.05,65.9,0)" xlink:href="#bZ"/><use transform="matrix(0.05,0,0,0.05,76.85000000000001,0)" xlink:href="#ca"/><use transform="matrix(0.05,0,0,0.05,80.80000000000001,0)" xlink:href="#bA"/><use transform="matrix(0.05,0,0,0.05,90.80000000000001,0)" xlink:href="#bO"/><use transform="matrix(0.05,0,0,0.05,103.75,0)" xlink:href="#cf"/><use transform="matrix(0.05,0,0,0.05,115.75,0)" xlink:href="#bC"/><use transform="matrix(0.05,0,0,0.05,125.75,0)" xlink:href="#bQ"/><use transform="matrix(0.05,0,0,0.05,134.75,0)" xlink:href="#bQ"/><use transform="matrix(0.05,0,0,0.05,143.75,0)" xlink:href="#bF"/><use transform="matrix(0.05,0,0,0.05,147.7,0)" xlink:href="#bA"/><use transform="matrix(0.05,0,0,0.05,157.7,0)" xlink:href="#bG"/></g><g id="v"><use transform="matrix(0.05,0,0,0.05,0,0)" xlink:href="#bF"/><use transform="matrix(0.05,0,0,0.05,3.95,0)" xlink:href="#bG"/><use transform="matrix(0.05,0,0,0.05,13.949999999999998,0)" xlink:href="#bQ"/><use transform="matrix(0.05,0,0,0.05,22.95,0)" xlink:href="#bH"/><use transform="matrix(0.05,0,0,0.05,27.950000000000003,0)" xlink:href="#bI"/><use transform="matrix(0.05,0,0,0.05,37.95,0)" xlink:href="#bG"/><use transform="matrix(0.05,0,0,0.05,47.95,0)" xlink:href="#bT"/><use transform="matrix(0.05,0,0,0.05,56.95,0)" xlink:href="#bC"/></g><g id="w"><use transform="matrix(0.05,0,0,0.05,0,0)" xlink:href="#bS"/><use transform="matrix(0.05,0,0,0.05,14.950000000000001,0)" xlink:href="#bC"/><use transform="matrix(0.05,0,0,0.05,24.950000000000003,0)" xlink:href="#bH"/><use transform="matrix(0.05,0,0,0.05,29.950000000000003,0)" xlink:href="#bC"/><use transform="matrix(0.05,0,0,0.05,39.95,0)" xlink:href="#bN"/><use transform="matrix(0.05,0,0,0.05,45.900000000000006,0)" xlink:href="#bC"/><use transform="matrix(0.05,0,0,0.05,55.900000000000006,0)" xlink:href="#bB"/><use transform="matrix(0.05,0,0,0.05,65.9,0)" xlink:href="#bZ"/><use transform="matrix(0.05,0,0,0.05,76.85000000000001,0)" xlink:href="#ca"/><use transform="matrix(0.05,0,0,0.05,80.80000000000001,0)" xlink:href="#bA"/><use transform="matrix(0.05,0,0,0.05,90.80000000000001,0)" xlink:href="#bO"/><use transform="matrix(0.05,0,0,0.05,103.75,0)" xlink:href="#cf"/><use transform="matrix(0.05,0,0,0.05,115.75,0)" xlink:href="#bC"/><use transform="matrix(0.05,0,0,0.05,125.75,0)" xlink:href="#bQ"/><use transform="matrix(0.05,0,0,0.05,134.75,0)" xlink:href="#bQ"/><use transform="matrix(0.05,0,0,0.05,143.75,0)" xlink:href="#bF"/><use transform="matrix(0.05,0,0,0.05,147.7,0)" xlink:href="#bA"/><use transform="matrix(0.05,0,0,0.05,157.7,0)" xlink:href="#bG"/><use transform="matrix(0.05,0,0,0.05,167.7,0)" xlink:href="#cc"/><use transform="matrix(0.05,0,0,0.05,177.7,0)" xlink:href="#bQ"/><use transform="matrix(0.05,0,0,0.05,186.7,0)" xlink:href="#bC"/><use transform="matrix(0.05,0,0,0.05,196.7,0)" xlink:href="#bG"/><use transform="matrix(0.05,0,0,0.05,206.69999999999996,0)" xlink:href="#bB"/></g><g id="x"><use transform="matrix(0.05,0,0,0.05,0,0)" xlink:href="#bE"/><use transform="matrix(0.05,0,0,0.05,5.95,0)" xlink:href="#bI"/><use transform="matrix(0.05,0,0,0.05,15.949999999999998,0)" xlink:href="#bH"/></g><path d="M106-169C34-169 62-67 57 0H25v-261h32l-1 103c12-21 28-36 61-36 89 0 53 116 60 194h-32v-121c2-32-8-49-39-48" id="cg"/><g id="y"><use transform="matrix(0.05,0,0,0.05,0,0)" xlink:href="#bH"/><use transform="matrix(0.05,0,0,0.05,5,0)" xlink:href="#cg"/><use transform="matrix(0.05,0,0,0.05,15,0)" xlink:href="#bF"/><use transform="matrix(0.05,0,0,0.05,18.95,0)" xlink:href="#bQ"/></g><g id="z"><use transform="matrix(0.05,0,0,0.05,0,0)" xlink:href="#bR"/><use transform="matrix(0.05,0,0,0.05,10,0)" xlink:href="#bA"/><use transform="matrix(0.05,0,0,0.05,20,0)" xlink:href="#bF"/><use transform="matrix(0.05,0,0,0.05,23.95,0)" xlink:href="#bG"/><use transform="matrix(0.05,0,0,0.05,33.95,0)" xlink:href="#bH"/></g><g id="A"><use transform="matrix(0.05,0,0,0.05,0,0)" xlink:href="#bO"/><use transform="matrix(0.05,0,0,0.05,12.950000000000001,0)" xlink:href="#bC"/></g><path d="M108 0H70L1-190h34L89-25l56-165h34" id="ch"/><g id="B"><use transform="matrix(0.05,0,0,0.05,0,0)" xlink:href="#cg"/><use transform="matrix(0.05,0,0,0.05,10,0)" xlink:href="#bI"/><use transform="matrix(0.05,0,0,0.05,20,0)" xlink:href="#ch"/><use transform="matrix(0.05,0,0,0.05,29,0)" xlink:href="#bC"/></g><g id="C"><use transform="matrix(0.05,0,0,0.05,0,0)" xlink:href="#bS"/><use transform="matrix(0.05,0,0,0.05,14.950000000000001,0)" xlink:href="#bC"/><use transform="matrix(0.05,0,0,0.05,24.950000000000003,0)" xlink:href="#bQ"/><use transform="matrix(0.05,0,0,0.05,33.95,0)" xlink:href="#bQ"/><use transform="matrix(0.05,0,0,0.05,42.95,0)" xlink:href="#bI"/><use transform="matrix(0.05,0,0,0.05,52.95,0)" xlink:href="#bJ"/><use transform="matrix(0.05,0,0,0.05,62.95,0)" xlink:href="#bC"/></g><g id="D"><use transform="matrix(0.05,0,0,0.05,0,0)" xlink:href="#bN"/><use transform="matrix(0.05,0,0,0.05,5.95,0)" xlink:href="#bC"/><use transform="matrix(0.05,0,0,0.05,15.949999999999998,0)" xlink:href="#bT"/><use transform="matrix(0.05,0,0,0.05,24.95,0)" xlink:href="#bC"/><use transform="matrix(0.05,0,0,0.05,34.95,0)" xlink:href="#bF"/><use transform="matrix(0.05,0,0,0.05,38.900000000000006,0)" xlink:href="#ch"/><use transform="matrix(0.05,0,0,0.05,47.900000000000006,0)" xlink:href="#bC"/><use transform="matrix(0.05,0,0,0.05,57.900000000000006,0)" xlink:href="#bB"/></g><g id="E"><use transform="matrix(0.05,0,0,0.05,0,0)" xlink:href="#bE"/><use transform="matrix(0.05,0,0,0.05,5.95,0)" xlink:href="#bN"/><use transform="matrix(0.05,0,0,0.05,11.9,0)" xlink:href="#bC"/><use transform="matrix(0.05,0,0,0.05,21.9,0)" xlink:href="#bT"/><use transform="matrix(0.05,0,0,0.05,30.899999999999995,0)" xlink:href="#bA"/><use transform="matrix(0.05,0,0,0.05,40.9,0)" xlink:href="#bN"/><use transform="matrix(0.05,0,0,0.05,46.85,0)" xlink:href="#bB"/></g><g id="F"><use transform="matrix(0.05,0,0,0.05,0,0)" xlink:href="#bT"/><use transform="matrix(0.05,0,0,0.05,9,0)" xlink:href="#bA"/><use transform="matrix(0.05,0,0,0.05,19,0)" xlink:href="#bG"/><use transform="matrix(0.05,0,0,0.05,29,0)" xlink:href="#bG"/><use transform="matrix(0.05,0,0,0.05,39,0)" xlink:href="#bC"/><use transform="matrix(0.05,0,0,0.05,49,0)" xlink:href="#bT"/><use transform="matrix(0.05,0,0,0.05,58,0)" xlink:href="#bH"/><use transform="matrix(0.05,0,0,0.05,63,0)" xlink:href="#bF"/><use transform="matrix(0.05,0,0,0.05,66.95,0)" xlink:href="#bA"/><use transform="matrix(0.05,0,0,0.05,76.95,0)" xlink:href="#bG"/></g><g id="G"><use transform="matrix(0.05,0,0,0.05,0,0)" xlink:href="#bU"/><use transform="matrix(0.05,0,0,0.05,14.950000000000001,0)" xlink:href="#bC"/><use transform="matrix(0.05,0,0,0.05,24.950000000000003,0)" xlink:href="#bH"/><use transform="matrix(0.05,0,0,0.05,29.950000000000003,0)" xlink:href="#bN"/><use transform="matrix(0.05,0,0,0.05,35.900000000000006,0)" xlink:href="#bF"/><use transform="matrix(0.05,0,0,0.05,39.85000000000001,0)" xlink:href="#bT"/><use transform="matrix(0.05,0,0,0.05,48.85000000000001,0)" xlink:href="#bQ"/></g><g id="H"><use transform="matrix(0.05,0,0,0.05,0,0)" xlink:href="#bF"/><use transform="matrix(0.05,0,0,0.05,3.95,0)" xlink:href="#bG"/><use transform="matrix(0.05,0,0,0.05,13.949999999999998,0)" xlink:href="#bH"/><use transform="matrix(0.05,0,0,0.05,18.95,0)" xlink:href="#bA"/></g><g id="I"><use transform="matrix(0.05,0,0,0.05,0,0)" xlink:href="#bH"/><use transform="matrix(0.05,0,0,0.05,5,0)" xlink:href="#bC"/><use transform="matrix(0.05,0,0,0.05,15,0)" xlink:href="#bU"/><use transform="matrix(0.05,0,0,0.05,29.950000000000003,0)" xlink:href="#bR"/><use transform="matrix(0.05,0,0,0.05,39.95,0)" xlink:href="#bA"/><use transform="matrix(0.05,0,0,0.05,49.95,0)" xlink:href="#bN"/><use transform="matrix(0.05,0,0,0.05,55.900000000000006,0)" xlink:href="#bI"/><use transform="matrix(0.05,0,0,0.05,65.9,0)" xlink:href="#bN"/><use transform="matrix(0.05,0,0,0.05,71.85000000000001,0)" xlink:href="#bW"/></g><path d="M115-194c53 0 69 39 70 98 0 66-23 100-70 100C84 3 66-7 56-30L54 0H23l1-261h32v101c10-23 28-34 59-34zm-8 174c40 0 45-34 45-75 0-40-5-75-45-74-42 0-51 32-51 76 0 43 10 73 51 73" id="ci"/><path d="M24-231v-30h32v30H24zM-9 49c24 4 33-6 33-30v-209h32V24c2 40-23 58-65 49V49" id="cj"/><g id="J"><use transform="matrix(0.05,0,0,0.05,0,0)" xlink:href="#bA"/><use transform="matrix(0.05,0,0,0.05,10,0)" xlink:href="#ci"/><use transform="matrix(0.05,0,0,0.05,20,0)" xlink:href="#cj"/><use transform="matrix(0.05,0,0,0.05,23.95,0)" xlink:href="#bC"/><use transform="matrix(0.05,0,0,0.05,33.95,0)" xlink:href="#bT"/><use transform="matrix(0.05,0,0,0.05,42.95,0)" xlink:href="#bH"/><use transform="matrix(0.05,0,0,0.05,47.95,0)" xlink:href="#bK"/></g><g id="K"><use transform="matrix(0.05,0,0,0.05,0,0)" xlink:href="#bZ"/><use transform="matrix(0.05,0,0,0.05,10.950000000000001,0)" xlink:href="#bA"/><use transform="matrix(0.05,0,0,0.05,20.950000000000003,0)" xlink:href="#bN"/><use transform="matrix(0.05,0,0,0.05,26.900000000000002,0)" xlink:href="#bO"/><use transform="matrix(0.05,0,0,0.05,39.85,0)" xlink:href="#bI"/><use transform="matrix(0.05,0,0,0.05,49.85,0)" xlink:href="#bN"/><use transform="matrix(0.05,0,0,0.05,55.800000000000004,0)" xlink:href="#bB"/><use transform="matrix(0.05,0,0,0.05,65.80000000000001,0)" xlink:href="#bF"/><use transform="matrix(0.05,0,0,0.05,69.75000000000001,0)" xlink:href="#bG"/><use transform="matrix(0.05,0,0,0.05,79.75000000000001,0)" xlink:href="#bJ"/><use transform="matrix(0.05,0,0,0.05,89.75000000000001,0)" xlink:href="#bZ"/><use transform="matrix(0.05,0,0,0.05,100.70000000000002,0)" xlink:href="#ca"/><use transform="matrix(0.05,0,0,0.05,104.65000000000003,0)" xlink:href="#bA"/><use transform="matrix(0.05,0,0,0.05,114.65000000000003,0)" xlink:href="#bO"/></g><g id="L"><use transform="matrix(0.05,0,0,0.05,0,0)" xlink:href="#bQ"/><use transform="matrix(0.05,0,0,0.05,9,0)" xlink:href="#bH"/><use transform="matrix(0.05,0,0,0.05,14,0)" xlink:href="#bI"/><use transform="matrix(0.05,0,0,0.05,24,0)" xlink:href="#bN"/><use transform="matrix(0.05,0,0,0.05,29.950000000000003,0)" xlink:href="#bH"/></g><g id="M"><use transform="matrix(0.05,0,0,0.05,0,0)" xlink:href="#bE"/><use transform="matrix(0.05,0,0,0.05,5.95,0)" xlink:href="#bF"/><use transform="matrix(0.05,0,0,0.05,9.9,0)" xlink:href="#bM"/></g><g id="N"><use transform="matrix(0.05,0,0,0.05,0,0)" xlink:href="#bM"/><use transform="matrix(0.05,0,0,0.05,5,0)" xlink:href="#ca"/><use transform="matrix(0.05,0,0,0.05,8.95,0)" xlink:href="#bA"/><use transform="matrix(0.05,0,0,0.05,18.95,0)" xlink:href="#bO"/></g><g id="O"><use transform="matrix(0.05,0,0,0.05,0,0)" xlink:href="#bQ"/><use transform="matrix(0.05,0,0,0.05,9,0)" xlink:href="#ce"/><use transform="matrix(0.05,0,0,0.05,19,0)" xlink:href="#bR"/><use transform="matrix(0.05,0,0,0.05,29,0)" xlink:href="#bR"/><use transform="matrix(0.05,0,0,0.05,39,0)" xlink:href="#bA"/><use transform="matrix(0.05,0,0,0.05,49,0)" xlink:href="#bN"/><use transform="matrix(0.05,0,0,0.05,54.95,0)" xlink:href="#bH"/><use transform="matrix(0.05,0,0,0.05,59.95,0)" xlink:href="#bQ"/></g><path d="M68-38c1 34 0 65-14 84H32c9-13 17-26 17-46H33v-38h35" id="ck"/><g id="P"><use transform="matrix(0.05,0,0,0.05,0,0)" xlink:href="#bU"/><use transform="matrix(0.05,0,0,0.05,14.950000000000001,0)" xlink:href="#bC"/><use transform="matrix(0.05,0,0,0.05,24.950000000000003,0)" xlink:href="#bH"/><use transform="matrix(0.05,0,0,0.05,29.950000000000003,0)" xlink:href="#bC"/><use transform="matrix(0.05,0,0,0.05,39.95,0)" xlink:href="#bN"/><use transform="matrix(0.05,0,0,0.05,45.900000000000006,0)" xlink:href="#bF"/><use transform="matrix(0.05,0,0,0.05,49.85000000000001,0)" xlink:href="#bG"/><use transform="matrix(0.05,0,0,0.05,59.85,0)" xlink:href="#bJ"/><use transform="matrix(0.05,0,0,0.05,69.85000000000001,0)" xlink:href="#ck"/></g><g id="Q"><use transform="matrix(0.05,0,0,0.05,0,0)" xlink:href="#bQ"/><use transform="matrix(0.05,0,0,0.05,9,0)" xlink:href="#bH"/><use transform="matrix(0.05,0,0,0.05,14,0)" xlink:href="#bA"/><use transform="matrix(0.05,0,0,0.05,24,0)" xlink:href="#bN"/><use transform="matrix(0.05,0,0,0.05,29.950000000000003,0)" xlink:href="#bC"/></g><g id="R"><use transform="matrix(0.05,0,0,0.05,0,0)" xlink:href="#bU"/><use transform="matrix(0.05,0,0,0.05,14.950000000000001,0)" xlink:href="#bC"/><use transform="matrix(0.05,0,0,0.05,24.950000000000003,0)" xlink:href="#bH"/><use transform="matrix(0.05,0,0,0.05,29.950000000000003,0)" xlink:href="#bN"/><use transform="matrix(0.05,0,0,0.05,35.900000000000006,0)" xlink:href="#bF"/><use transform="matrix(0.05,0,0,0.05,39.85000000000001,0)" xlink:href="#bT"/><use transform="matrix(0.05,0,0,0.05,48.85000000000001,0)" xlink:href="#bQ"/><use transform="matrix(0.05,0,0,0.05,57.85,0)" xlink:href="#bK"/></g><g id="S"><use transform="matrix(0.05,0,0,0.05,0,0)" xlink:href="#bZ"/><use transform="matrix(0.05,0,0,0.05,10.950000000000001,0)" xlink:href="#ca"/><use transform="matrix(0.05,0,0,0.05,14.9,0)" xlink:href="#bA"/><use transform="matrix(0.05,0,0,0.05,24.900000000000002,0)" xlink:href="#bO"/><use transform="matrix(0.05,0,0,0.05,37.85,0)" xlink:href="#cf"/><use transform="matrix(0.05,0,0,0.05,49.85,0)" xlink:href="#bC"/><use transform="matrix(0.05,0,0,0.05,59.85,0)" xlink:href="#bQ"/><use transform="matrix(0.05,0,0,0.05,68.85,0)" xlink:href="#bQ"/><use transform="matrix(0.05,0,0,0.05,77.85,0)" xlink:href="#bF"/><use transform="matrix(0.05,0,0,0.05,81.8,0)" xlink:href="#bA"/><use transform="matrix(0.05,0,0,0.05,91.8,0)" xlink:href="#bG"/><use transform="matrix(0.05,0,0,0.05,101.8,0)" xlink:href="#cc"/><use transform="matrix(0.05,0,0,0.05,111.80000000000001,0)" xlink:href="#bN"/><use transform="matrix(0.05,0,0,0.05,117.75,0)" xlink:href="#bC"/><use transform="matrix(0.05,0,0,0.05,127.75,0)" xlink:href="#bT"/><use transform="matrix(0.05,0,0,0.05,136.75,0)" xlink:href="#bC"/><use transform="matrix(0.05,0,0,0.05,146.75,0)" xlink:href="#bF"/><use transform="matrix(0.05,0,0,0.05,150.7,0)" xlink:href="#ch"/><use transform="matrix(0.05,0,0,0.05,159.7,0)" xlink:href="#bC"/></g><g id="T"><use transform="matrix(0.05,0,0,0.05,0,0)" xlink:href="#cf"/><use transform="matrix(0.05,0,0,0.05,12,0)" xlink:href="#bI"/><use transform="matrix(0.05,0,0,0.05,22,0)" xlink:href="#ch"/><use transform="matrix(0.05,0,0,0.05,31,0)" xlink:href="#bC"/></g><g id="U"><use transform="matrix(0.05,0,0,0.05,0,0)" xlink:href="#bU"/><use transform="matrix(0.05,0,0,0.05,14.950000000000001,0)" xlink:href="#bC"/><use transform="matrix(0.05,0,0,0.05,24.950000000000003,0)" xlink:href="#bH"/><use transform="matrix(0.05,0,0,0.05,29.950000000000003,0)" xlink:href="#bN"/><use transform="matrix(0.05,0,0,0.05,35.900000000000006,0)" xlink:href="#bF"/><use transform="matrix(0.05,0,0,0.05,39.85000000000001,0)" xlink:href="#bT"/><use transform="matrix(0.05,0,0,0.05,48.85000000000001,0)" xlink:href="#bQ"/></g><g id="V"><use transform="matrix(0.05,0,0,0.05,0,0)" xlink:href="#ce"/><use transform="matrix(0.05,0,0,0.05,10,0)" xlink:href="#bR"/></g><g id="W"><use transform="matrix(0.05,0,0,0.05,0,0)" xlink:href="#bH"/><use transform="matrix(0.05,0,0,0.05,5,0)" xlink:href="#bA"/></g><g id="X"><use transform="matrix(0.05,0,0,0.05,0,0)" xlink:href="#bH"/><use transform="matrix(0.05,0,0,0.05,5,0)" xlink:href="#cg"/><use transform="matrix(0.05,0,0,0.05,15,0)" xlink:href="#bF"/><use transform="matrix(0.05,0,0,0.05,18.95,0)" xlink:href="#bQ"/></g><g id="Y"><use transform="matrix(0.05,0,0,0.05,0,0)" xlink:href="#bR"/><use transform="matrix(0.05,0,0,0.05,10,0)" xlink:href="#bA"/><use transform="matrix(0.05,0,0,0.05,20,0)" xlink:href="#bF"/><use transform="matrix(0.05,0,0,0.05,23.95,0)" xlink:href="#bG"/><use transform="matrix(0.05,0,0,0.05,33.95,0)" xlink:href="#bH"/></g><g id="Z"><use transform="matrix(0.05,0,0,0.05,0,0)" xlink:href="#cf"/><use transform="matrix(0.05,0,0,0.05,12,0)" xlink:href="#bC"/><use transform="matrix(0.05,0,0,0.05,22,0)" xlink:href="#bG"/><use transform="matrix(0.05,0,0,0.05,32,0)" xlink:href="#bB"/></g><g id="aa"><use transform="matrix(0.05,0,0,0.05,0,0)" xlink:href="#bR"/><use transform="matrix(0.05,0,0,0.05,10,0)" xlink:href="#bI"/><use transform="matrix(0.05,0,0,0.05,20,0)" xlink:href="#bF"/><use transform="matrix(0.05,0,0,0.05,23.95,0)" xlink:href="#bN"/></g><g id="ab"><use transform="matrix(0.05,0,0,0.05,0,0)" xlink:href="#ch"/><use transform="matrix(0.05,0,0,0.05,9,0)" xlink:href="#bF"/><use transform="matrix(0.05,0,0,0.05,12.949999999999998,0)" xlink:href="#bI"/></g><g id="ac"><use transform="matrix(0.05,0,0,0.05,0,0)" xlink:href="#bZ"/><use transform="matrix(0.05,0,0,0.05,10.950000000000001,0)" xlink:href="#ca"/><use transform="matrix(0.05,0,0,0.05,14.9,0)" xlink:href="#bA"/><use transform="matrix(0.05,0,0,0.05,24.900000000000002,0)" xlink:href="#bO"/><use transform="matrix(0.05,0,0,0.05,37.85,0)" xlink:href="#cf"/><use transform="matrix(0.05,0,0,0.05,49.85,0)" xlink:href="#bC"/><use transform="matrix(0.05,0,0,0.05,59.85,0)" xlink:href="#bQ"/><use transform="matrix(0.05,0,0,0.05,68.85,0)" xlink:href="#bQ"/><use transform="matrix(0.05,0,0,0.05,77.85,0)" xlink:href="#bF"/><use transform="matrix(0.05,0,0,0.05,81.8,0)" xlink:href="#bA"/><use transform="matrix(0.05,0,0,0.05,91.8,0)" xlink:href="#bG"/><use transform="matrix(0.05,0,0,0.05,101.8,0)" xlink:href="#cc"/><use transform="matrix(0.05,0,0,0.05,111.80000000000001,0)" xlink:href="#bQ"/><use transform="matrix(0.05,0,0,0.05,120.80000000000001,0)" xlink:href="#bC"/><use transform="matrix(0.05,0,0,0.05,130.8,0)" xlink:href="#bG"/><use transform="matrix(0.05,0,0,0.05,140.8,0)" xlink:href="#bB"/></g><g id="ad"><use transform="matrix(0.05,0,0,0.05,0,0)" xlink:href="#cf"/><use transform="matrix(0.05,0,0,0.05,12,0)" xlink:href="#bI"/><use transform="matrix(0.05,0,0,0.05,22,0)" xlink:href="#bU"/><use transform="matrix(0.05,0,0,0.05,36.95,0)" xlink:href="#bC"/></g><g id="ae"><use transform="matrix(0.05,0,0,0.05,0,0)" xlink:href="#ca"/><use transform="matrix(0.05,0,0,0.05,3.95,0)" xlink:href="#bA"/><use transform="matrix(0.05,0,0,0.05,13.949999999999998,0)" xlink:href="#bJ"/><use transform="matrix(0.05,0,0,0.05,23.95,0)" xlink:href="#bF"/><use transform="matrix(0.05,0,0,0.05,27.899999999999995,0)" xlink:href="#bT"/></g><g id="af"><use transform="matrix(0.05,0,0,0.05,0,0)" xlink:href="#bI"/><use transform="matrix(0.05,0,0,0.05,10,0)" xlink:href="#bQ"/></g><g id="ag"><use transform="matrix(0.05,0,0,0.05,0,0)" xlink:href="#bF"/><use transform="matrix(0.05,0,0,0.05,3.95,0)" xlink:href="#bG"/></g><g id="ah"><use transform="matrix(0.05,0,0,0.05,0,0)" xlink:href="#bz"/><use transform="matrix(0.05,0,0,0.05,12.950000000000001,0)" xlink:href="#bA"/><use transform="matrix(0.05,0,0,0.05,22.950000000000003,0)" xlink:href="#bB"/><use transform="matrix(0.05,0,0,0.05,32.95,0)" xlink:href="#bC"/></g><g id="ai"><use transform="matrix(0.05,0,0,0.05,0,0)" xlink:href="#bQ"/><use transform="matrix(0.05,0,0,0.05,9,0)" xlink:href="#bC"/><use transform="matrix(0.05,0,0,0.05,19,0)" xlink:href="#bG"/><use transform="matrix(0.05,0,0,0.05,29,0)" xlink:href="#bB"/></g><g id="aj"><use transform="matrix(0.05,0,0,0.05,0,0)" xlink:href="#bN"/><use transform="matrix(0.05,0,0,0.05,5.95,0)" xlink:href="#bC"/><use transform="matrix(0.05,0,0,0.05,15.949999999999998,0)" xlink:href="#bT"/><use transform="matrix(0.05,0,0,0.05,24.95,0)" xlink:href="#bC"/><use transform="matrix(0.05,0,0,0.05,34.95,0)" xlink:href="#bF"/><use transform="matrix(0.05,0,0,0.05,38.900000000000006,0)" xlink:href="#ch"/><use transform="matrix(0.05,0,0,0.05,47.900000000000006,0)" xlink:href="#bC"/></g><g id="ak"><use transform="matrix(0.05,0,0,0.05,0,0)" xlink:href="#bZ"/><use transform="matrix(0.05,0,0,0.05,10.950000000000001,0)" xlink:href="#ca"/><use transform="matrix(0.05,0,0,0.05,14.9,0)" xlink:href="#bA"/><use transform="matrix(0.05,0,0,0.05,24.900000000000002,0)" xlink:href="#bO"/></g><g id="al"><use transform="matrix(0.05,0,0,0.05,0,0)" xlink:href="#bT"/><use transform="matrix(0.05,0,0,0.05,9,0)" xlink:href="#bA"/><use transform="matrix(0.05,0,0,0.05,19,0)" xlink:href="#bU"/><use transform="matrix(0.05,0,0,0.05,33.95,0)" xlink:href="#bR"/><use transform="matrix(0.05,0,0,0.05,43.95,0)" xlink:href="#ca"/><use transform="matrix(0.05,0,0,0.05,47.900000000000006,0)" xlink:href="#bC"/><use transform="matrix(0.05,0,0,0.05,57.900000000000006,0)" xlink:href="#bH"/><use transform="matrix(0.05,0,0,0.05,62.900000000000006,0)" xlink:href="#bC"/></g><g id="am"><use transform="matrix(0.05,0,0,0.05,0,0)" xlink:href="#bS"/><use transform="matrix(0.05,0,0,0.05,14.950000000000001,0)" xlink:href="#bC"/><use transform="matrix(0.05,0,0,0.05,24.950000000000003,0)" xlink:href="#bH"/><use transform="matrix(0.05,0,0,0.05,29.950000000000003,0)" xlink:href="#bC"/><use transform="matrix(0.05,0,0,0.05,39.95,0)" xlink:href="#bN"/><use transform="matrix(0.05,0,0,0.05,45.900000000000006,0)" xlink:href="#bC"/><use transform="matrix(0.05,0,0,0.05,55.900000000000006,0)" xlink:href="#bB"/><use transform="matrix(0.05,0,0,0.05,65.9,0)" xlink:href="#bZ"/><use transform="matrix(0.05,0,0,0.05,76.85000000000001,0)" xlink:href="#ca"/><use transform="matrix(0.05,0,0,0.05,80.80000000000001,0)" xlink:href="#bA"/><use transform="matrix(0.05,0,0,0.05,90.80000000000001,0)" xlink:href="#bO"/><use transform="matrix(0.05,0,0,0.05,103.75,0)" xlink:href="#cf"/><use transform="matrix(0.05,0,0,0.05,115.75,0)" xlink:href="#bC"/><use transform="matrix(0.05,0,0,0.05,125.75,0)" xlink:href="#bQ"/><use transform="matrix(0.05,0,0,0.05,134.75,0)" xlink:href="#bQ"/><use transform="matrix(0.05,0,0,0.05,143.75,0)" xlink:href="#bF"/><use transform="matrix(0.05,0,0,0.05,147.7,0)" xlink:href="#bA"/><use transform="matrix(0.05,0,0,0.05,157.7,0)" xlink:href="#bG"/><use transform="matrix(0.05,0,0,0.05,167.7,0)" xlink:href="#cc"/><use transform="matrix(0.05,0,0,0.05,177.7,0)" xlink:href="#bN"/><use transform="matrix(0.05,0,0,0.05,183.64999999999998,0)" xlink:href="#bC"/><use transform="matrix(0.05,0,0,0.05,193.64999999999998,0)" xlink:href="#bT"/><use transform="matrix(0.05,0,0,0.05,202.64999999999998,0)" xlink:href="#bC"/><use transform="matrix(0.05,0,0,0.05,212.64999999999998,0)" xlink:href="#bF"/><use transform="matrix(0.05,0,0,0.05,216.59999999999997,0)" xlink:href="#ch"/><use transform="matrix(0.05,0,0,0.05,225.59999999999997,0)" xlink:href="#bC"/></g><g id="an"><use transform="matrix(0.05,0,0,0.05,0,0)" xlink:href="#bZ"/><use transform="matrix(0.05,0,0,0.05,10.950000000000001,0)" xlink:href="#ca"/><use transform="matrix(0.05,0,0,0.05,14.9,0)" xlink:href="#bA"/><use transform="matrix(0.05,0,0,0.05,24.900000000000002,0)" xlink:href="#bO"/><use transform="matrix(0.05,0,0,0.05,37.85,0)" xlink:href="#cf"/><use transform="matrix(0.05,0,0,0.05,49.85,0)" xlink:href="#bC"/><use transform="matrix(0.05,0,0,0.05,59.85,0)" xlink:href="#bQ"/><use transform="matrix(0.05,0,0,0.05,68.85,0)" xlink:href="#bQ"/><use transform="matrix(0.05,0,0,0.05,77.85,0)" xlink:href="#bF"/><use transform="matrix(0.05,0,0,0.05,81.8,0)" xlink:href="#bA"/><use transform="matrix(0.05,0,0,0.05,91.8,0)" xlink:href="#bG"/><use transform="matrix(0.05,0,0,0.05,101.8,0)" xlink:href="#cc"/><use transform="matrix(0.05,0,0,0.05,111.80000000000001,0)" xlink:href="#bQ"/><use transform="matrix(0.05,0,0,0.05,120.80000000000001,0)" xlink:href="#bC"/><use transform="matrix(0.05,0,0,0.05,130.8,0)" xlink:href="#bG"/><use transform="matrix(0.05,0,0,0.05,140.8,0)" xlink:href="#bB"/></g><g id="ap"><use transform="matrix(0.05,0,0,0.05,0,0)" xlink:href="#bG"/><use transform="matrix(0.05,0,0,0.05,10,0)" xlink:href="#bC"/><use transform="matrix(0.05,0,0,0.05,20,0)" xlink:href="#bO"/></g><g id="aq"><use transform="matrix(0.05,0,0,0.05,0,0)" xlink:href="#bZ"/><use transform="matrix(0.05,0,0,0.05,10.950000000000001,0)" xlink:href="#ca"/><use transform="matrix(0.05,0,0,0.05,14.9,0)" xlink:href="#bA"/><use transform="matrix(0.05,0,0,0.05,24.900000000000002,0)" xlink:href="#bO"/><use transform="matrix(0.05,0,0,0.05,37.85,0)" xlink:href="#cf"/><use transform="matrix(0.05,0,0,0.05,49.85,0)" xlink:href="#bC"/><use transform="matrix(0.05,0,0,0.05,59.85,0)" xlink:href="#bQ"/><use transform="matrix(0.05,0,0,0.05,68.85,0)" xlink:href="#bQ"/><use transform="matrix(0.05,0,0,0.05,77.85,0)" xlink:href="#bF"/><use transform="matrix(0.05,0,0,0.05,81.8,0)" xlink:href="#bA"/><use transform="matrix(0.05,0,0,0.05,91.8,0)" xlink:href="#bG"/></g><path d="M233-177c-1 41-23 64-60 70L243 0h-38l-65-103H63V0H30v-248c88 3 205-21 203 71zM63-129c60-2 137 13 137-47 0-61-80-42-137-45v92" id="cl"/><g id="ar"><use transform="matrix(0.05,0,0,0.05,0,0)" xlink:href="#cc"/><use transform="matrix(0.05,0,0,0.05,10,0)" xlink:href="#bQ"/><use transform="matrix(0.05,0,0,0.05,19,0)" xlink:href="#bC"/><use transform="matrix(0.05,0,0,0.05,29,0)" xlink:href="#bG"/><use transform="matrix(0.05,0,0,0.05,39,0)" xlink:href="#bB"/><use transform="matrix(0.05,0,0,0.05,49,0)" xlink:href="#bD"/><use transform="matrix(0.05,0,0,0.05,61,0)" xlink:href="#bG"/><use transform="matrix(0.05,0,0,0.05,71,0)" xlink:href="#bB"/><use transform="matrix(0.05,0,0,0.05,81,0)" xlink:href="#cl"/><use transform="matrix(0.05,0,0,0.05,93.95,0)" xlink:href="#bC"/><use transform="matrix(0.05,0,0,0.05,103.95,0)" xlink:href="#bT"/><use transform="matrix(0.05,0,0,0.05,112.95,0)" xlink:href="#bC"/><use transform="matrix(0.05,0,0,0.05,122.95,0)" xlink:href="#bF"/><use transform="matrix(0.05,0,0,0.05,126.9,0)" xlink:href="#ch"/><use transform="matrix(0.05,0,0,0.05,135.9,0)" xlink:href="#bC"/></g><g id="as"><use transform="matrix(0.05,0,0,0.05,0,0)" xlink:href="#bY"/><use transform="matrix(0.05,0,0,0.05,5,0)" xlink:href="#bM"/></g><g id="at"><use transform="matrix(0.05,0,0,0.05,0,0)" xlink:href="#bM"/><use transform="matrix(0.05,0,0,0.05,5,0)" xlink:href="#ca"/><use transform="matrix(0.05,0,0,0.05,8.95,0)" xlink:href="#bA"/><use transform="matrix(0.05,0,0,0.05,18.95,0)" xlink:href="#bO"/></g><g id="au"><use transform="matrix(0.05,0,0,0.05,0,0)" xlink:href="#bF"/><use transform="matrix(0.05,0,0,0.05,3.95,0)" xlink:href="#bQ"/></g><g id="av"><use transform="matrix(0.05,0,0,0.05,0,0)" xlink:href="#bU"/><use transform="matrix(0.05,0,0,0.05,14.950000000000001,0)" xlink:href="#bC"/><use transform="matrix(0.05,0,0,0.05,24.950000000000003,0)" xlink:href="#bH"/><use transform="matrix(0.05,0,0,0.05,29.950000000000003,0)" xlink:href="#bC"/><use transform="matrix(0.05,0,0,0.05,39.95,0)" xlink:href="#bN"/><use transform="matrix(0.05,0,0,0.05,45.900000000000006,0)" xlink:href="#bC"/><use transform="matrix(0.05,0,0,0.05,55.900000000000006,0)" xlink:href="#bB"/></g><g id="aw"><use transform="matrix(0.05,0,0,0.05,0,0)" xlink:href="#bO"/><use transform="matrix(0.05,0,0,0.05,12.950000000000001,0)" xlink:href="#bN"/><use transform="matrix(0.05,0,0,0.05,18.900000000000002,0)" xlink:href="#bI"/><use transform="matrix(0.05,0,0,0.05,28.900000000000002,0)" xlink:href="#bR"/></g><g id="ax"><use transform="matrix(0.05,0,0,0.05,0,0)" xlink:href="#bU"/><use transform="matrix(0.05,0,0,0.05,14.950000000000001,0)" xlink:href="#bC"/><use transform="matrix(0.05,0,0,0.05,24.950000000000003,0)" xlink:href="#bQ"/><use transform="matrix(0.05,0,0,0.05,33.95,0)" xlink:href="#bQ"/><use transform="matrix(0.05,0,0,0.05,42.95,0)" xlink:href="#bI"/><use transform="matrix(0.05,0,0,0.05,52.95,0)" xlink:href="#bJ"/><use transform="matrix(0.05,0,0,0.05,62.95,0)" xlink:href="#bC"/></g><g id="ay"><use transform="matrix(0.05,0,0,0.05,0,0)" xlink:href="#bF"/><use transform="matrix(0.05,0,0,0.05,3.95,0)" xlink:href="#bG"/><use transform="matrix(0.05,0,0,0.05,13.949999999999998,0)" xlink:href="#bH"/><use transform="matrix(0.05,0,0,0.05,18.95,0)" xlink:href="#bA"/></g><path d="M127-220V0H93v-220H8v-28h204v28h-85" id="cm"/><path d="M18-100v-36l175-74v27L42-118l151 64v27" id="cn"/><g id="az"><use transform="matrix(0.05,0,0,0.05,0,0)" xlink:href="#cm"/><use transform="matrix(0.05,0,0,0.05,10.3,0)" xlink:href="#ce"/><use transform="matrix(0.05,0,0,0.05,20.3,0)" xlink:href="#bR"/><use transform="matrix(0.05,0,0,0.05,30.3,0)" xlink:href="#ca"/><use transform="matrix(0.05,0,0,0.05,34.25,0)" xlink:href="#bC"/><use transform="matrix(0.05,0,0,0.05,44.25,0)" xlink:href="#cn"/><use transform="matrix(0.05,0,0,0.05,54.75,0)" xlink:href="#bS"/><use transform="matrix(0.05,0,0,0.05,69.7,0)" xlink:href="#bC"/><use transform="matrix(0.05,0,0,0.05,79.7,0)" xlink:href="#bQ"/><use transform="matrix(0.05,0,0,0.05,88.7,0)" xlink:href="#bQ"/><use transform="matrix(0.05,0,0,0.05,97.7,0)" xlink:href="#bI"/><use transform="matrix(0.05,0,0,0.05,107.7,0)" xlink:href="#bJ"/><use transform="matrix(0.05,0,0,0.05,117.7,0)" xlink:href="#bC"/><use transform="matrix(0.05,0,0,0.05,127.7,0)" xlink:href="#ck"/></g><path d="M18-27v-27l151-64-151-65v-27l175 74v36" id="co"/><g id="aA"><use transform="matrix(0.05,0,0,0.05,0,0)" xlink:href="#bS"/><use transform="matrix(0.05,0,0,0.05,14.950000000000001,0)" xlink:href="#bC"/><use transform="matrix(0.05,0,0,0.05,24.950000000000003,0)" xlink:href="#bH"/><use transform="matrix(0.05,0,0,0.05,29.950000000000003,0)" xlink:href="#bN"/><use transform="matrix(0.05,0,0,0.05,35.900000000000006,0)" xlink:href="#bF"/><use transform="matrix(0.05,0,0,0.05,39.85000000000001,0)" xlink:href="#bT"/><use transform="matrix(0.05,0,0,0.05,48.85000000000001,0)" xlink:href="#bQ"/><use transform="matrix(0.05,0,0,0.05,57.85,0)" xlink:href="#co"/><use transform="matrix(0.05,0,0,0.05,68.35000000000001,0)" xlink:href="#ck"/></g><g id="aB"><use transform="matrix(0.05,0,0,0.05,0,0)" xlink:href="#bA"/><use transform="matrix(0.05,0,0,0.05,10,0)" xlink:href="#bH"/><use transform="matrix(0.05,0,0,0.05,15,0)" xlink:href="#cg"/><use transform="matrix(0.05,0,0,0.05,25,0)" xlink:href="#bC"/><use transform="matrix(0.05,0,0,0.05,35,0)" xlink:href="#bN"/><use transform="matrix(0.05,0,0,0.05,40.95,0)" xlink:href="#bO"/><use transform="matrix(0.05,0,0,0.05,53.900000000000006,0)" xlink:href="#bF"/><use transform="matrix(0.05,0,0,0.05,57.85,0)" xlink:href="#bQ"/><use transform="matrix(0.05,0,0,0.05,66.85000000000001,0)" xlink:href="#bC"/></g><g id="aC"><use transform="matrix(0.05,0,0,0.05,0,0)" xlink:href="#cj"/><use transform="matrix(0.05,0,0,0.05,3.95,0)" xlink:href="#ce"/><use transform="matrix(0.05,0,0,0.05,13.949999999999998,0)" xlink:href="#bQ"/><use transform="matrix(0.05,0,0,0.05,22.95,0)" xlink:href="#bH"/></g><g id="aD"><use transform="matrix(0.05,0,0,0.05,0,0)" xlink:href="#bQ"/><use transform="matrix(0.05,0,0,0.05,9,0)" xlink:href="#bC"/><use transform="matrix(0.05,0,0,0.05,19,0)" xlink:href="#bG"/><use transform="matrix(0.05,0,0,0.05,29,0)" xlink:href="#bB"/></g><g id="aE"><use transform="matrix(0.05,0,0,0.05,0,0)" xlink:href="#bS"/><use transform="matrix(0.05,0,0,0.05,14.950000000000001,0)" xlink:href="#bC"/><use transform="matrix(0.05,0,0,0.05,24.950000000000003,0)" xlink:href="#bQ"/><use transform="matrix(0.05,0,0,0.05,33.95,0)" xlink:href="#bQ"/><use transform="matrix(0.05,0,0,0.05,42.95,0)" xlink:href="#bI"/><use transform="matrix(0.05,0,0,0.05,52.95,0)" xlink:href="#bJ"/><use transform="matrix(0.05,0,0,0.05,62.95,0)" xlink:href="#bC"/></g><g id="aF"><use transform="matrix(0.05,0,0,0.05,0,0)" xlink:href="#cf"/><use transform="matrix(0.05,0,0,0.05,12,0)" xlink:href="#bC"/><use transform="matrix(0.05,0,0,0.05,22,0)" xlink:href="#bG"/><use transform="matrix(0.05,0,0,0.05,32,0)" xlink:href="#bB"/></g><g id="aG"><use transform="matrix(0.05,0,0,0.05,0,0)" xlink:href="#bN"/><use transform="matrix(0.05,0,0,0.05,5.95,0)" xlink:href="#bC"/><use transform="matrix(0.05,0,0,0.05,15.949999999999998,0)" xlink:href="#bQ"/><use transform="matrix(0.05,0,0,0.05,24.95,0)" xlink:href="#bR"/><use transform="matrix(0.05,0,0,0.05,34.95,0)" xlink:href="#bA"/><use transform="matrix(0.05,0,0,0.05,44.95,0)" xlink:href="#bG"/><use transform="matrix(0.05,0,0,0.05,54.95,0)" xlink:href="#bQ"/><use transform="matrix(0.05,0,0,0.05,63.95,0)" xlink:href="#bC"/></g><g id="aH"><use transform="matrix(0.05,0,0,0.05,0,0)" xlink:href="#ch"/><use transform="matrix(0.05,0,0,0.05,9,0)" xlink:href="#bF"/><use transform="matrix(0.05,0,0,0.05,12.949999999999998,0)" xlink:href="#bI"/></g><g id="aI"><use transform="matrix(0.05,0,0,0.05,0,0)" xlink:href="#bZ"/><use transform="matrix(0.05,0,0,0.05,10.950000000000001,0)" xlink:href="#ca"/><use transform="matrix(0.05,0,0,0.05,14.9,0)" xlink:href="#bA"/><use transform="matrix(0.05,0,0,0.05,24.900000000000002,0)" xlink:href="#bO"/><use transform="matrix(0.05,0,0,0.05,37.85,0)" xlink:href="#cf"/><use transform="matrix(0.05,0,0,0.05,49.85,0)" xlink:href="#bC"/><use transform="matrix(0.05,0,0,0.05,59.85,0)" xlink:href="#bQ"/><use transform="matrix(0.05,0,0,0.05,68.85,0)" xlink:href="#bQ"/><use transform="matrix(0.05,0,0,0.05,77.85,0)" xlink:href="#bF"/><use transform="matrix(0.05,0,0,0.05,81.8,0)" xlink:href="#bA"/><use transform="matrix(0.05,0,0,0.05,91.8,0)" xlink:href="#bG"/><use transform="matrix(0.05,0,0,0.05,101.8,0)" xlink:href="#cc"/><use transform="matrix(0.05,0,0,0.05,111.80000000000001,0)" xlink:href="#bQ"/><use transform="matrix(0.05,0,0,0.05,120.80000000000001,0)" xlink:href="#bC"/><use transform="matrix(0.05,0,0,0.05,130.8,0)" xlink:href="#bG"/><use transform="matrix(0.05,0,0,0.05,140.8,0)" xlink:href="#bB"/></g><path d="M143 4C61 4 22-44 18-125c-5-107 100-154 193-111 17 8 29 25 37 43l-32 9c-13-25-37-40-76-40-61 0-88 39-88 99 0 61 29 100 91 101 35 0 62-11 79-27v-45h-74v-28h105v86C228-13 192 4 143 4" id="cp"/><g id="aJ"><use transform="matrix(0.05,0,0,0.05,0,0)" xlink:href="#cp"/><use transform="matrix(0.05,0,0,0.05,14,0)" xlink:href="#bC"/><use transform="matrix(0.05,0,0,0.05,24,0)" xlink:href="#bH"/></g><g id="aK"><use transform="matrix(0.05,0,0,0.05,0,0)" xlink:href="#cm"/><use transform="matrix(0.05,0,0,0.05,10.3,0)" xlink:href="#ce"/><use transform="matrix(0.05,0,0,0.05,20.3,0)" xlink:href="#bR"/><use transform="matrix(0.05,0,0,0.05,30.3,0)" xlink:href="#ca"/><use transform="matrix(0.05,0,0,0.05,34.25,0)" xlink:href="#bC"/><use transform="matrix(0.05,0,0,0.05,44.25,0)" xlink:href="#cn"/><use transform="matrix(0.05,0,0,0.05,54.75,0)" xlink:href="#bS"/><use transform="matrix(0.05,0,0,0.05,69.7,0)" xlink:href="#bC"/><use transform="matrix(0.05,0,0,0.05,79.7,0)" xlink:href="#bQ"/><use transform="matrix(0.05,0,0,0.05,88.7,0)" xlink:href="#bQ"/><use transform="matrix(0.05,0,0,0.05,97.7,0)" xlink:href="#bI"/><use transform="matrix(0.05,0,0,0.05,107.7,0)" xlink:href="#bJ"/><use transform="matrix(0.05,0,0,0.05,117.7,0)" xlink:href="#bC"/><use transform="matrix(0.05,0,0,0.05,127.7,0)" xlink:href="#ck"/></g><g id="aL"><use transform="matrix(0.05,0,0,0.05,0,0)" xlink:href="#bS"/><use transform="matrix(0.05,0,0,0.05,14.950000000000001,0)" xlink:href="#bC"/><use transform="matrix(0.05,0,0,0.05,24.950000000000003,0)" xlink:href="#bH"/><use transform="matrix(0.05,0,0,0.05,29.950000000000003,0)" xlink:href="#bN"/><use transform="matrix(0.05,0,0,0.05,35.900000000000006,0)" xlink:href="#bF"/><use transform="matrix(0.05,0,0,0.05,39.85000000000001,0)" xlink:href="#bT"/><use transform="matrix(0.05,0,0,0.05,48.85000000000001,0)" xlink:href="#bQ"/><use transform="matrix(0.05,0,0,0.05,57.85,0)" xlink:href="#co"/></g><g id="aM"><use transform="matrix(0.05,0,0,0.05,0,0)" xlink:href="#bA"/><use transform="matrix(0.05,0,0,0.05,10,0)" xlink:href="#bN"/></g><g id="aN"><use transform="matrix(0.05,0,0,0.05,0,0)" xlink:href="#bS"/><use transform="matrix(0.05,0,0,0.05,14.950000000000001,0)" xlink:href="#bC"/><use transform="matrix(0.05,0,0,0.05,24.950000000000003,0)" xlink:href="#bQ"/><use transform="matrix(0.05,0,0,0.05,33.95,0)" xlink:href="#bQ"/><use transform="matrix(0.05,0,0,0.05,42.95,0)" xlink:href="#bI"/><use transform="matrix(0.05,0,0,0.05,52.95,0)" xlink:href="#bJ"/><use transform="matrix(0.05,0,0,0.05,62.95,0)" xlink:href="#bC"/></g><g id="aO"><use transform="matrix(0.05,0,0,0.05,0,0)" xlink:href="#bF"/><use transform="matrix(0.05,0,0,0.05,3.95,0)" xlink:href="#bM"/></g><g id="aP"><use transform="matrix(0.05,0,0,0.05,0,0)" xlink:href="#bN"/><use transform="matrix(0.05,0,0,0.05,5.95,0)" xlink:href="#bC"/><use transform="matrix(0.05,0,0,0.05,15.949999999999998,0)" xlink:href="#bQ"/><use transform="matrix(0.05,0,0,0.05,24.95,0)" xlink:href="#bR"/><use transform="matrix(0.05,0,0,0.05,34.95,0)" xlink:href="#bA"/><use transform="matrix(0.05,0,0,0.05,44.95,0)" xlink:href="#bG"/><use transform="matrix(0.05,0,0,0.05,54.95,0)" xlink:href="#bB"/><use transform="matrix(0.05,0,0,0.05,64.95,0)" xlink:href="#bC"/><use transform="matrix(0.05,0,0,0.05,74.95,0)" xlink:href="#bN"/></g><g id="aQ"><use transform="matrix(0.05,0,0,0.05,0,0)" xlink:href="#bB"/><use transform="matrix(0.05,0,0,0.05,10,0)" xlink:href="#bF"/><use transform="matrix(0.05,0,0,0.05,13.949999999999998,0)" xlink:href="#bB"/></g><g id="aR"><use transform="matrix(0.05,0,0,0.05,0,0)" xlink:href="#bG"/><use transform="matrix(0.05,0,0,0.05,10,0)" xlink:href="#bA"/><use transform="matrix(0.05,0,0,0.05,20,0)" xlink:href="#bH"/></g><g id="aS"><use transform="matrix(0.05,0,0,0.05,0,0)" xlink:href="#bU"/><use transform="matrix(0.05,0,0,0.05,14.950000000000001,0)" xlink:href="#bC"/><use transform="matrix(0.05,0,0,0.05,24.950000000000003,0)" xlink:href="#bH"/><use transform="matrix(0.05,0,0,0.05,29.950000000000003,0)" xlink:href="#bC"/><use transform="matrix(0.05,0,0,0.05,39.95,0)" xlink:href="#bN"/></g><g id="aT"><use transform="matrix(0.05,0,0,0.05,0,0)" xlink:href="#bS"/><use transform="matrix(0.05,0,0,0.05,14.950000000000001,0)" xlink:href="#bC"/><use transform="matrix(0.05,0,0,0.05,24.950000000000003,0)" xlink:href="#bH"/><use transform="matrix(0.05,0,0,0.05,29.950000000000003,0)" xlink:href="#bN"/><use transform="matrix(0.05,0,0,0.05,35.900000000000006,0)" xlink:href="#bF"/><use transform="matrix(0.05,0,0,0.05,39.85000000000001,0)" xlink:href="#bT"/><use transform="matrix(0.05,0,0,0.05,48.85000000000001,0)" xlink:href="#bQ"/></g><g id="aU"><use transform="matrix(0.05,0,0,0.05,0,0)" xlink:href="#bI"/><use transform="matrix(0.05,0,0,0.05,10,0)" xlink:href="#bG"/><use transform="matrix(0.05,0,0,0.05,20,0)" xlink:href="#bB"/></g><g id="aV"><use transform="matrix(0.05,0,0,0.05,0,0)" xlink:href="#bU"/><use transform="matrix(0.05,0,0,0.05,14.950000000000001,0)" xlink:href="#bC"/><use transform="matrix(0.05,0,0,0.05,24.950000000000003,0)" xlink:href="#bN"/><use transform="matrix(0.05,0,0,0.05,30.900000000000002,0)" xlink:href="#bJ"/><use transform="matrix(0.05,0,0,0.05,40.900000000000006,0)" xlink:href="#bC"/></g><g id="aW"><use transform="matrix(0.05,0,0,0.05,0,0)" xlink:href="#bO"/><use transform="matrix(0.05,0,0,0.05,12.950000000000001,0)" xlink:href="#bF"/><use transform="matrix(0.05,0,0,0.05,16.900000000000002,0)" xlink:href="#bH"/><use transform="matrix(0.05,0,0,0.05,21.900000000000002,0)" xlink:href="#cg"/></g><g id="aX"><use transform="matrix(0.05,0,0,0.05,0,0)" xlink:href="#bT"/><use transform="matrix(0.05,0,0,0.05,9,0)" xlink:href="#ce"/><use transform="matrix(0.05,0,0,0.05,19,0)" xlink:href="#bN"/><use transform="matrix(0.05,0,0,0.05,24.95,0)" xlink:href="#bN"/><use transform="matrix(0.05,0,0,0.05,30.899999999999995,0)" xlink:href="#bC"/><use transform="matrix(0.05,0,0,0.05,40.9,0)" xlink:href="#bG"/><use transform="matrix(0.05,0,0,0.05,50.9,0)" xlink:href="#bH"/></g><g id="aY"><use transform="matrix(0.05,0,0,0.05,0,0)" xlink:href="#bU"/><use transform="matrix(0.05,0,0,0.05,14.950000000000001,0)" xlink:href="#bC"/><use transform="matrix(0.05,0,0,0.05,24.950000000000003,0)" xlink:href="#bH"/><use transform="matrix(0.05,0,0,0.05,29.950000000000003,0)" xlink:href="#bN"/><use transform="matrix(0.05,0,0,0.05,35.900000000000006,0)" xlink:href="#bF"/><use transform="matrix(0.05,0,0,0.05,39.85000000000001,0)" xlink:href="#bT"/><use transform="matrix(0.05,0,0,0.05,48.85000000000001,0)" xlink:href="#bQ"/><use transform="matrix(0.05,0,0,0.05,57.85,0)" xlink:href="#ck"/></g><g id="aZ"><use transform="matrix(0.05,0,0,0.05,0,0)" xlink:href="#bF"/><use transform="matrix(0.05,0,0,0.05,3.95,0)" xlink:href="#bM"/></g><g id="ba"><use transform="matrix(0.05,0,0,0.05,0,0)" xlink:href="#bH"/><use transform="matrix(0.05,0,0,0.05,5,0)" xlink:href="#cg"/><use transform="matrix(0.05,0,0,0.05,15,0)" xlink:href="#bC"/><use transform="matrix(0.05,0,0,0.05,25,0)" xlink:href="#bW"/></g><g id="bb"><use transform="matrix(0.05,0,0,0.05,0,0)" xlink:href="#bO"/><use transform="matrix(0.05,0,0,0.05,12.950000000000001,0)" xlink:href="#bC"/><use transform="matrix(0.05,0,0,0.05,22.950000000000003,0)" xlink:href="#bN"/><use transform="matrix(0.05,0,0,0.05,28.900000000000002,0)" xlink:href="#bC"/></g><g id="bc"><use transform="matrix(0.05,0,0,0.05,0,0)" xlink:href="#bN"/><use transform="matrix(0.05,0,0,0.05,5.95,0)" xlink:href="#bC"/><use transform="matrix(0.05,0,0,0.05,15.949999999999998,0)" xlink:href="#bT"/><use transform="matrix(0.05,0,0,0.05,24.95,0)" xlink:href="#bC"/><use transform="matrix(0.05,0,0,0.05,34.95,0)" xlink:href="#bF"/><use transform="matrix(0.05,0,0,0.05,38.900000000000006,0)" xlink:href="#ch"/><use transform="matrix(0.05,0,0,0.05,47.900000000000006,0)" xlink:href="#bC"/><use transform="matrix(0.05,0,0,0.05,57.900000000000006,0)" xlink:href="#bB"/></g><g id="bd"><use transform="matrix(0.05,0,0,0.05,0,0)" xlink:href="#cl"/><use transform="matrix(0.05,0,0,0.05,12.950000000000001,0)" xlink:href="#bC"/><use transform="matrix(0.05,0,0,0.05,22.950000000000003,0)" xlink:href="#bH"/><use transform="matrix(0.05,0,0,0.05,27.950000000000003,0)" xlink:href="#ce"/><use transform="matrix(0.05,0,0,0.05,37.95,0)" xlink:href="#bN"/><use transform="matrix(0.05,0,0,0.05,43.900000000000006,0)" xlink:href="#bG"/></g><g id="be"><use transform="matrix(0.05,0,0,0.05,0,0)" xlink:href="#cd"/><use transform="matrix(0.05,0,0,0.05,12.950000000000001,0)" xlink:href="#bA"/></g><g id="bf"><use transform="matrix(0.05,0,0,0.05,0,0)" xlink:href="#bU"/><use transform="matrix(0.05,0,0,0.05,14.950000000000001,0)" xlink:href="#bA"/><use transform="matrix(0.05,0,0,0.05,24.950000000000003,0)" xlink:href="#bN"/><use transform="matrix(0.05,0,0,0.05,30.900000000000002,0)" xlink:href="#bC"/></g><g id="bg"><use transform="matrix(0.05,0,0,0.05,0,0)" xlink:href="#bQ"/><use transform="matrix(0.05,0,0,0.05,9,0)" xlink:href="#bH"/><use transform="matrix(0.05,0,0,0.05,14,0)" xlink:href="#ce"/><use transform="matrix(0.05,0,0,0.05,24,0)" xlink:href="#bM"/><use transform="matrix(0.05,0,0,0.05,28.649999999999995,0)" xlink:href="#bM"/></g><path d="M140-251c81 0 123 46 123 126C263-46 219 4 140 4 59 4 17-45 17-125s42-126 123-126zm0 227c63 0 89-41 89-101s-29-99-89-99c-61 0-89 39-89 99S79-25 140-24" id="cq"/><path d="M30-248c87 1 191-15 191 75 0 78-77 80-158 76V0H30v-248zm33 125c57 0 124 11 124-50 0-59-68-47-124-48v98" id="cr"/><g id="bh"><use transform="matrix(0.05,0,0,0.05,0,0)" xlink:href="#cq"/><use transform="matrix(0.05,0,0,0.05,14,0)" xlink:href="#cr"/><use transform="matrix(0.05,0,0,0.05,26,0)" xlink:href="#cf"/></g><g id="bi"><use transform="matrix(0.05,0,0,0.05,0,0)" xlink:href="#bS"/><use transform="matrix(0.05,0,0,0.05,14.950000000000001,0)" xlink:href="#bC"/><use transform="matrix(0.05,0,0,0.05,24.950000000000003,0)" xlink:href="#bH"/><use transform="matrix(0.05,0,0,0.05,29.950000000000003,0)" xlink:href="#bC"/><use transform="matrix(0.05,0,0,0.05,39.95,0)" xlink:href="#bN"/><use transform="matrix(0.05,0,0,0.05,45.900000000000006,0)" xlink:href="#bC"/><use transform="matrix(0.05,0,0,0.05,55.900000000000006,0)" xlink:href="#bB"/><use transform="matrix(0.05,0,0,0.05,65.9,0)" xlink:href="#bZ"/><use transform="matrix(0.05,0,0,0.05,76.85000000000001,0)" xlink:href="#ca"/><use transform="matrix(0.05,0,0,0.05,80.80000000000001,0)" xlink:href="#bA"/><use transform="matrix(0.05,0,0,0.05,90.80000000000001,0)" xlink:href="#bO"/><use transform="matrix(0.05,0,0,0.05,103.75,0)" xlink:href="#cf"/><use transform="matrix(0.05,0,0,0.05,115.75,0)" xlink:href="#bC"/><use transform="matrix(0.05,0,0,0.05,125.75,0)" xlink:href="#bQ"/><use transform="matrix(0.05,0,0,0.05,134.75,0)" xlink:href="#bQ"/><use transform="matrix(0.05,0,0,0.05,143.75,0)" xlink:href="#bF"/><use transform="matrix(0.05,0,0,0.05,147.7,0)" xlink:href="#bA"/><use transform="matrix(0.05,0,0,0.05,157.7,0)" xlink:href="#bG"/></g><g id="bj"><use transform="matrix(0.05,0,0,0.05,0,0)" xlink:href="#bE"/><use transform="matrix(0.05,0,0,0.05,5.95,0)" xlink:href="#bS"/><use transform="matrix(0.05,0,0,0.05,20.900000000000002,0)" xlink:href="#bC"/><use transform="matrix(0.05,0,0,0.05,30.900000000000002,0)" xlink:href="#bH"/><use transform="matrix(0.05,0,0,0.05,35.900000000000006,0)" xlink:href="#bC"/><use transform="matrix(0.05,0,0,0.05,45.900000000000006,0)" xlink:href="#bN"/><use transform="matrix(0.05,0,0,0.05,51.85,0)" xlink:href="#bC"/><use transform="matrix(0.05,0,0,0.05,61.85,0)" xlink:href="#bB"/></g><g id="bk"><use transform="matrix(0.05,0,0,0.05,0,0)" xlink:href="#ch"/><use transform="matrix(0.05,0,0,0.05,9,0)" xlink:href="#bC"/><use transform="matrix(0.05,0,0,0.05,19,0)" xlink:href="#bN"/><use transform="matrix(0.05,0,0,0.05,24.95,0)" xlink:href="#bQ"/><use transform="matrix(0.05,0,0,0.05,33.95,0)" xlink:href="#bF"/><use transform="matrix(0.05,0,0,0.05,37.900000000000006,0)" xlink:href="#bA"/><use transform="matrix(0.05,0,0,0.05,47.900000000000006,0)" xlink:href="#bG"/></g><g id="bl"><use transform="matrix(0.05,0,0,0.05,0,0)" xlink:href="#bF"/><use transform="matrix(0.05,0,0,0.05,3.95,0)" xlink:href="#bG"/><use transform="matrix(0.05,0,0,0.05,13.949999999999998,0)" xlink:href="#bQ"/><use transform="matrix(0.05,0,0,0.05,22.95,0)" xlink:href="#bH"/><use transform="matrix(0.05,0,0,0.05,27.950000000000003,0)" xlink:href="#bI"/><use transform="matrix(0.05,0,0,0.05,37.95,0)" xlink:href="#bG"/><use transform="matrix(0.05,0,0,0.05,47.95,0)" xlink:href="#bH"/><use transform="matrix(0.05,0,0,0.05,52.95,0)" xlink:href="#bF"/><use transform="matrix(0.05,0,0,0.05,56.900000000000006,0)" xlink:href="#bI"/><use transform="matrix(0.05,0,0,0.05,66.9,0)" xlink:href="#bH"/><use transform="matrix(0.05,0,0,0.05,71.9,0)" xlink:href="#bC"/><use transform="matrix(0.05,0,0,0.05,81.9,0)" xlink:href="#bB"/></g><g id="bm"><use transform="matrix(0.05,0,0,0.05,0,0)" xlink:href="#bA"/><use transform="matrix(0.05,0,0,0.05,10,0)" xlink:href="#bG"/><use transform="matrix(0.05,0,0,0.05,20,0)" xlink:href="#ca"/><use transform="matrix(0.05,0,0,0.05,23.95,0)" xlink:href="#bW"/></g><g id="bn"><use transform="matrix(0.05,0,0,0.05,0,0)" xlink:href="#bU"/><use transform="matrix(0.05,0,0,0.05,14.950000000000001,0)" xlink:href="#bC"/><use transform="matrix(0.05,0,0,0.05,24.950000000000003,0)" xlink:href="#bH"/><use transform="matrix(0.05,0,0,0.05,29.950000000000003,0)" xlink:href="#bN"/><use transform="matrix(0.05,0,0,0.05,35.900000000000006,0)" xlink:href="#bF"/><use transform="matrix(0.05,0,0,0.05,39.85000000000001,0)" xlink:href="#bT"/><use transform="matrix(0.05,0,0,0.05,48.85000000000001,0)" xlink:href="#bQ"/></g><g id="bo"><use transform="matrix(0.05,0,0,0.05,0,0)" xlink:href="#bF"/><use transform="matrix(0.05,0,0,0.05,3.95,0)" xlink:href="#bG"/><use transform="matrix(0.05,0,0,0.05,13.949999999999998,0)" xlink:href="#bF"/><use transform="matrix(0.05,0,0,0.05,17.9,0)" xlink:href="#bH"/><use transform="matrix(0.05,0,0,0.05,22.9,0)" xlink:href="#bF"/><use transform="matrix(0.05,0,0,0.05,26.849999999999994,0)" xlink:href="#bI"/><use transform="matrix(0.05,0,0,0.05,36.849999999999994,0)" xlink:href="#bH"/><use transform="matrix(0.05,0,0,0.05,41.849999999999994,0)" xlink:href="#bA"/><use transform="matrix(0.05,0,0,0.05,51.849999999999994,0)" xlink:href="#bN"/></g><g id="bp"><use transform="matrix(0.05,0,0,0.05,0,0)" xlink:href="#bU"/><use transform="matrix(0.05,0,0,0.05,14.950000000000001,0)" xlink:href="#bC"/><use transform="matrix(0.05,0,0,0.05,24.950000000000003,0)" xlink:href="#bH"/><use transform="matrix(0.05,0,0,0.05,29.950000000000003,0)" xlink:href="#bC"/><use transform="matrix(0.05,0,0,0.05,39.95,0)" xlink:href="#bN"/><use transform="matrix(0.05,0,0,0.05,45.900000000000006,0)" xlink:href="#bC"/><use transform="matrix(0.05,0,0,0.05,55.900000000000006,0)" xlink:href="#bB"/></g><g id="bq"><use transform="matrix(0.05,0,0,0.05,0,0)" xlink:href="#cl"/><use transform="matrix(0.05,0,0,0.05,12.950000000000001,0)" xlink:href="#bC"/><use transform="matrix(0.05,0,0,0.05,22.950000000000003,0)" xlink:href="#bT"/><use transform="matrix(0.05,0,0,0.05,31.950000000000003,0)" xlink:href="#bC"/><use transform="matrix(0.05,0,0,0.05,41.95,0)" xlink:href="#bF"/><use transform="matrix(0.05,0,0,0.05,45.900000000000006,0)" xlink:href="#ch"/><use transform="matrix(0.05,0,0,0.05,54.900000000000006,0)" xlink:href="#bC"/></g><g id="br"><use transform="matrix(0.05,0,0,0.05,0,0)" xlink:href="#bM"/><use transform="matrix(0.05,0,0,0.05,5,0)" xlink:href="#bN"/><use transform="matrix(0.05,0,0,0.05,10.95,0)" xlink:href="#bA"/><use transform="matrix(0.05,0,0,0.05,20.95,0)" xlink:href="#bU"/></g><use transform="matrix(0.05,0,0,0.05,0,0)" xlink:href="#bD" id="bs"/><g id="bt"><use transform="matrix(0.05,0,0,0.05,0,0)" xlink:href="#bS"/><use transform="matrix(0.05,0,0,0.05,14.950000000000001,0)" xlink:href="#bC"/><use transform="matrix(0.05,0,0,0.05,24.950000000000003,0)" xlink:href="#bN"/><use transform="matrix(0.05,0,0,0.05,30.900000000000002,0)" xlink:href="#bJ"/><use transform="matrix(0.05,0,0,0.05,40.900000000000006,0)" xlink:href="#bC"/></g><g id="bu"><use transform="matrix(0.05,0,0,0.05,0,0)" xlink:href="#bU"/><use transform="matrix(0.05,0,0,0.05,14.950000000000001,0)" xlink:href="#bC"/><use transform="matrix(0.05,0,0,0.05,24.950000000000003,0)" xlink:href="#bH"/><use transform="matrix(0.05,0,0,0.05,29.950000000000003,0)" xlink:href="#bN"/><use transform="matrix(0.05,0,0,0.05,35.900000000000006,0)" xlink:href="#bF"/><use transform="matrix(0.05,0,0,0.05,39.85000000000001,0)" xlink:href="#bT"/><use transform="matrix(0.05,0,0,0.05,48.85000000000001,0)" xlink:href="#bQ"/></g><g id="bv"><use transform="matrix(0.05,0,0,0.05,0,0)" xlink:href="#bA"/><use transform="matrix(0.05,0,0,0.05,10,0)" xlink:href="#bM"/></g><g id="bw"><use transform="matrix(0.05,0,0,0.05,0,0)" xlink:href="#bM"/><use transform="matrix(0.05,0,0,0.05,5,0)" xlink:href="#bA"/><use transform="matrix(0.05,0,0,0.05,15,0)" xlink:href="#bN"/><use transform="matrix(0.05,0,0,0.05,20.95,0)" xlink:href="#bO"/><use transform="matrix(0.05,0,0,0.05,33.9,0)" xlink:href="#bI"/><use transform="matrix(0.05,0,0,0.05,43.9,0)" xlink:href="#bN"/><use transform="matrix(0.05,0,0,0.05,49.85,0)" xlink:href="#bB"/><use transform="matrix(0.05,0,0,0.05,59.85,0)" xlink:href="#bC"/><use transform="matrix(0.05,0,0,0.05,69.85,0)" xlink:href="#bB"/></g><g id="bx"><use transform="matrix(0.05,0,0,0.05,0,0)" xlink:href="#bO"/><use transform="matrix(0.05,0,0,0.05,12.950000000000001,0)" xlink:href="#bF"/><use transform="matrix(0.05,0,0,0.05,16.900000000000002,0)" xlink:href="#bH"/><use transform="matrix(0.05,0,0,0.05,21.900000000000002,0)" xlink:href="#cg"/></g><g id="by"><use transform="matrix(0.05,0,0,0.05,0,0)" xlink:href="#bU"/><use transform="matrix(0.05,0,0,0.05,14.950000000000001,0)" xlink:href="#bC"/><use transform="matrix(0.05,0,0,0.05,24.950000000000003,0)" xlink:href="#bH"/><use transform="matrix(0.05,0,0,0.05,29.950000000000003,0)" xlink:href="#bN"/><use transform="matrix(0.05,0,0,0.05,35.900000000000006,0)" xlink:href="#bF"/><use transform="matrix(0.05,0,0,0.05,39.85000000000001,0)" xlink:href="#bT"/><use transform="matrix(0.05,0,0,0.05,48.85000000000001,0)" xlink:href="#bQ"/></g></defs></g></svg>